<svg xmlns="http://www.w3.org/2000/svg" id="_24-hours-phone-service" width="51.955" height="48.631" data-name="24-hours-phone-service" viewBox="0 0 51.955 48.631">
    <defs>
        <style>
            .cls-1{fill:#fff}
        </style>
    </defs>
    <path id="Path_44" d="M28.8 19.573a23.136 23.136 0 0 0-18.941 9.869 11.324 11.324 0 0 1 2.532 2.34 19.755 19.755 0 0 1 14.037-8.664l2.372 4.023 2.377-4.022a19.786 19.786 0 0 1 17.232 17.227l-4.023 2.377 4.023 2.377a19.763 19.763 0 0 1-9.055 14.294 6.01 6.01 0 0 1 .518 2.183 5.784 5.784 0 0 1-.147 1.553A23.147 23.147 0 0 0 28.8 19.573zM34.712 57.7c-5.337-4.289-6.829-2.181-9.251.24-1.691 1.691-5.969-1.84-9.663-5.534s-7.225-7.972-5.535-9.663c2.422-2.421 4.529-3.914.239-9.25S3.355 32.254 1.009 34.6C-1.7 37.307.867 47.4 10.837 57.367S30.9 69.9 33.6 67.2c2.35-2.35 6.448-5.209 1.112-9.5zM18.458 46.347c0-4.744 5.554-5.589 5.554-7.44a1.269 1.269 0 0 0-1.384-1.275c-1.222 0-1.9 1.365-1.9 1.365l-2.336-1.563a4.956 4.956 0 0 1 4.529-2.768c2.1 0 4.385 1.2 4.385 3.936 0 4.008-5.176 4.781-5.266 6.434h5.46v2.7h-8.9a7.851 7.851 0 0 1-.142-1.389zm10.354-3.63l4.961-7.836h3.846v7.135h1.527v2.605h-1.528v3.109h-3.109v-3.109h-5.7v-1.9zm5.7-.7v-2.876a11.473 11.473 0 0 1 .108-1.438h-.036a6.82 6.82 0 0 1-.629 1.33l-1.94 2.947v.036z" class="cls-1" data-name="Path 44" transform="translate(0 -19.573)"/>
</svg>
