<svg xmlns="http://www.w3.org/2000/svg" width="115.962" height="72.474" viewBox="0 0 115.962 72.474">
    <defs>
        <style>
            .cls-1{fill:#3e83c2}
        </style>
    </defs>
    <g id="hand-shake" transform="translate(0 -96.003)">
        <g id="Group_9" data-name="Group 9" transform="translate(16.906 101.135)">
            <g id="Group_8" data-name="Group 8">
                <path id="Path_6" d="M149.3 163.22c-2.276-4.745-10.417-11.331-18.283-17.694-4.387-3.547-8.533-6.9-11.176-9.543a2.415 2.415 0 0 0-2.527-.565c-1.628.59-2.633 1.044-3.426 1.4a7.99 7.99 0 0 1-3.242.889 2.415 2.415 0 0 0-1.768 1.058c-3.416 5.107-6.953 4.672-9.316 3.88-.754-.251-.889-.575-.961-.884-.507-2.121 2.039-7.059 5.339-10.359 7.852-7.856 11.9-9.823 20.453-6 9.7 4.339 19.424 7.736 19.52 7.769a2.417 2.417 0 1 0 1.587-4.571c-.1-.034-9.625-3.363-19.134-7.62-11.079-4.953-17.158-1.691-25.84 7-3.3 3.3-7.794 9.992-6.634 14.9a5.976 5.976 0 0 0 4.15 4.353c5.474 1.807 10.47.077 14.191-4.861a12.2 12.2 0 0 0 3.629-1.15c.454-.2.986-.44 1.691-.725 2.764 2.595 6.494 5.614 10.422 8.789 7.1 5.745 15.157 12.258 16.969 16.027a2.831 2.831 0 0 1-.72 3.629 2.662 2.662 0 0 1-2.976.585 2.415 2.415 0 0 0-3.774 2.247c.164 1.536-1.242 2.416-1.851 2.72-1.546.783-3.16.648-3.764.087a2.415 2.415 0 0 0-4.054 1.541 4.591 4.591 0 0 1-2.851 3.7 2.548 2.548 0 0 1-2.773-.43 2.444 2.444 0 0 0-2.208-.561 2.412 2.412 0 0 0-1.7 1.522c-.092.242-.3.821-2.561.821a13.911 13.911 0 0 1-5.919-2.025c-1.7-1.116-12.331-9.05-21.516-16.742-1.29-1.087-3.522-3.416-5.494-5.474-1.749-1.826-3.348-3.484-4.17-4.179a2.417 2.417 0 1 0-3.121 3.692c.749.633 2.2 2.165 3.8 3.831 2.155 2.252 4.382 4.58 5.88 5.837 9 7.533 19.81 15.665 21.965 17.08a18.535 18.535 0 0 0 8.581 2.806 8.315 8.315 0 0 0 5.484-1.614 7.52 7.52 0 0 0 5.494-.058 9.517 9.517 0 0 0 5.03-4.643 9.343 9.343 0 0 0 6.064-.874 8.2 8.2 0 0 0 4.034-4.213 7.9 7.9 0 0 0 5.542-1.986 7.681 7.681 0 0 0 1.934-9.392z" class="cls-1" data-name="Path 6" transform="translate(-74.642 -118.658)"/>
            </g>
        </g>
        <g id="Group_11" data-name="Group 11" transform="translate(24.159 105.665)">
            <g id="Group_10" data-name="Group 10">
                <path id="Path_7" d="M130.825 138.663h-21.743a2.416 2.416 0 1 0 0 4.832h21.743a2.416 2.416 0 1 0 0-4.832z" class="cls-1" data-name="Path 7" transform="translate(-106.666 -138.663)"/>
            </g>
        </g>
        <g id="Group_13" data-name="Group 13" transform="translate(87.155 139.483)">
            <g id="Group_12" data-name="Group 12">
                <path id="Path_8" d="M396.3 289.049a2.41 2.41 0 0 0-3.353-.657l-7.064 4.745a2.416 2.416 0 0 0 2.7 4.01l7.064-4.745a2.418 2.418 0 0 0 .653-3.353z" class="cls-1" data-name="Path 8" transform="translate(-384.811 -287.977)"/>
            </g>
        </g>
        <g id="Group_15" data-name="Group 15" transform="translate(65.232 137.069)">
            <g id="Group_14" data-name="Group 14">
                <path id="Path_9" d="M306.426 292.333c-1.73-1.363-9.465-9.282-14.249-14.268a2.416 2.416 0 1 0-3.489 3.344c1.242 1.295 12.2 12.712 14.742 14.722a2.406 2.406 0 0 0 1.493.517 2.441 2.441 0 0 0 1.9-.923 2.414 2.414 0 0 0-.397-3.392z" class="cls-1" data-name="Path 9" transform="translate(-288.016 -277.317)"/>
            </g>
        </g>
        <g id="Group_17" data-name="Group 17" transform="translate(57.982 144.321)">
            <g id="Group_16" data-name="Group 16">
                <path id="Path_10" d="M272.011 321.946c-2.894-2.314-10.166-10.04-11.809-11.828a2.418 2.418 0 1 0-3.561 3.271c.087.092 8.765 9.461 12.35 12.331a2.417 2.417 0 0 0 3.02-3.774z" class="cls-1" data-name="Path 10" transform="translate(-256.005 -309.337)"/>
            </g>
        </g>
        <g id="Group_19" data-name="Group 19" transform="translate(48.32 149.147)">
            <g id="Group_18" data-name="Group 18">
                <path id="Path_11" d="M229.4 343.293c-3.445-2.9-10.495-10.408-11.872-11.881a2.417 2.417 0 1 0-3.532 3.3c1.981 2.121 8.726 9.272 12.287 12.277a2.417 2.417 0 1 0 3.116-3.7z" class="cls-1" data-name="Path 11" transform="translate(-213.343 -330.644)"/>
            </g>
        </g>
        <g id="Group_21" data-name="Group 21" transform="translate(0 96.003)">
            <g id="Group_20" data-name="Group 20">
                <path id="Path_12" d="M28.237 101.5C24.1 97.572 7.538 96.3 2.561 96.007A2.414 2.414 0 0 0 0 98.418V141.9a2.417 2.417 0 0 0 2.416 2.416h14.5a2.413 2.413 0 0 0 2.3-1.667c.353-1.082 8.678-26.632 9.775-39.2a2.4 2.4 0 0 0-.754-1.949zm-13.09 37.988H4.832v-38.48c7.765.614 16.143 1.947 19.187 3.426-1.281 10.581-7.074 29.381-8.872 35.054z" class="cls-1" data-name="Path 12" transform="translate(0 -96.004)"/>
            </g>
        </g>
        <g id="Group_23" data-name="Group 23" transform="translate(82.225 100.834)">
            <g id="Group_22" data-name="Group 22">
                <path id="Path_13" d="M394.367 117.33c-18.969 0-29.493 4.856-29.933 5.059a2.4 2.4 0 0 0-1.29 1.5 2.436 2.436 0 0 0 .266 1.962c2.986 4.808 12.335 31.508 14.133 38.021a2.415 2.415 0 0 0 2.329 1.773h14.5a2.417 2.417 0 0 0 2.416-2.416v-43.483a2.414 2.414 0 0 0-2.421-2.416zm-2.416 43.486h-10.273c-2.29-7.46-9.055-26.913-12.828-34.953a78.686 78.686 0 0 1 23.1-3.672z" class="cls-1" data-name="Path 13" transform="translate(-363.046 -117.33)"/>
            </g>
        </g>
    </g>
</svg>
