<svg xmlns="http://www.w3.org/2000/svg" id="Group_194" width="38.273" height="268.027" data-name="Group 194" viewBox="0 0 38.273 268.027">
    <defs>
        <style>
            .cls-1{fill:none}.cls-2{clip-path:url(#clip-path)}.cls-3{fill:#0e2b4a}
        </style>
        <clipPath id="clip-path">
            <path id="Rectangle_121" d="M0 0h38.273v268.027H0z" class="cls-1" data-name="Rectangle 121"/>
        </clipPath>
    </defs>
    <g id="Group_193" class="cls-2" data-name="Group 193">
        <path id="Path_123" d="M19.21 182.384c-1.72 0-2.619-3.24-2.619-6.442s.9-6.442 2.619-6.442 2.618 3.24 2.618 6.442-.9 6.442-2.618 6.442m0-11.671c-.421 0-1.406 1.779-1.406 5.229s.985 5.229 1.406 5.229 1.405-1.779 1.405-5.229-.985-5.229-1.405-5.229" class="cls-3" data-name="Path 123"/>
        <path id="Path_124" d="M21.257 185.366a2.047 2.047 0 1 1-2.047-2.047 2.046 2.046 0 0 1 2.047 2.047" class="cls-3" data-name="Path 124"/>
        <path id="Path_125" d="M20.456 182.15a1.247 1.247 0 1 1-1.246-1.25 1.247 1.247 0 0 1 1.246 1.247" class="cls-3" data-name="Path 125"/>
        <path id="Path_126" d="M38.258 207.336q.006-.241.006-.486c0-6.006-2.654-10.919-11.437-14.45-6.892-2.77-7.616-7.314-7.616-7.314h-.15s-.723 4.544-7.615 7.314C2.663 195.931.009 200.844.009 206.85q0 .244.006.486z" class="cls-3" data-name="Path 126"/>
        <path id="Path_127" d="M.006 245.767c0 .161-.006.324-.006.486 0 6.009 2.655 10.925 11.443 14.456 6.895 2.773 7.619 7.318 7.619 7.318h.15s.724-4.545 7.618-7.318c8.787-3.531 11.443-8.447 11.443-14.456 0-.162 0-.325-.006-.486z" class="cls-3" data-name="Path 127"/>
        <path id="Path_128" d="M38.264 246.532H.015v-39.957h38.249zM.978 245.57H37.3v-38.032H.978z" class="cls-3" data-name="Path 128"/>
        <path id="Path_129" d="M36.744 244.945H1.534v-36.782h35.21zm-34.323-.886h33.438v-35.01H2.421z" class="cls-3" data-name="Path 129"/>
        <path id="Path_130" d="M36.3 244.5v-.384a3.47 3.47 0 0 1-.229.384z" class="cls-3" data-name="Path 130"/>
        <path id="Path_131" d="M3.788 209.665a4.729 4.729 0 0 0 2.365-1.06h-.27a4.444 4.444 0 0 1-1.848.833c-.124.027-.248.047-.408.077a4.265 4.265 0 0 1-1.339 2.726c-.1.1-.2.183-.311.267v.233a4.64 4.64 0 0 0 1.811-3.076" class="cls-3" data-name="Path 131"/>
        <path id="Path_132" d="M36.3 243.438v-.51a4.148 4.148 0 0 1-.8 1.574h.219a4.408 4.408 0 0 0 .585-1.064" class="cls-3" data-name="Path 132"/>
        <path id="Path_133" d="M18.239 208.6a2.965 2.965 0 0 1 .1.373c-.07-.13-.145-.251-.22-.373h-.228a4.176 4.176 0 0 1 .533 1.448 1.785 1.785 0 0 1-.263 1.224 5.145 5.145 0 0 1-1.78 1.793 1.993 1.993 0 0 1-1.562.211 4.325 4.325 0 0 1-3.184-3.47c-.014-.1-.035-.192-.053-.3-.236-.045-.461-.075-.681-.129a4.156 4.156 0 0 1-1.564-.78h-.261a4.684 4.684 0 0 0 2.363 1.055 4.752 4.752 0 0 0 2.534 3.567 3.405 3.405 0 0 1-1.9-1.26 3.838 3.838 0 0 1-.779-2.145A3.937 3.937 0 0 1 8.68 208.6h-.8a4.426 4.426 0 0 0 .312.373 4.778 4.778 0 0 0 .734.645 4.561 4.561 0 0 0 .864.454c.3.122.621.191.952.289.365 1.492.55 1.772 2.048 3.1a4.3 4.3 0 0 0-2.035 3.077 4.341 4.341 0 0 0-3.143 2.146 4.36 4.36 0 0 0-3.144-2.137 4.341 4.341 0 0 0-2.076-3.1 4.385 4.385 0 0 0 2.067-3.109 4.279 4.279 0 0 0 2.867-1.738h-.8a3.861 3.861 0 0 1-2.592 1.208 3.677 3.677 0 0 1-1.962 3.1v1.046a3.678 3.678 0 0 1 1.963 3.1 3.693 3.693 0 0 1 3.411 2.678 4.768 4.768 0 0 0-3.546-2.501 4.647 4.647 0 0 0-1.818-3.084v.238a4.258 4.258 0 0 1 1.585 2.578c.031.135.055.273.082.411.228.043.441.068.644.124a4.3 4.3 0 0 1 3.006 2.721 2.349 2.349 0 0 1-.609 2.653c-.187.193-.38.384-.573.571a3.005 3.005 0 0 1-.29.25 2.215 2.215 0 0 1-2.2.4 4.726 4.726 0 0 1-1.645-.974v.224a5.79 5.79 0 0 0 1.112.785 4.411 4.411 0 0 1-1.112-.5v1.437a2.584 2.584 0 0 1 1.049-.445 5.781 5.781 0 0 0-1.049.743v.237a4.362 4.362 0 0 1 1.511-.931 2.361 2.361 0 0 1 2.648.631c.183.176.365.357.541.541a2.341 2.341 0 0 1 .62 2.648 4.265 4.265 0 0 1-3.244 2.782c-.112.024-.224.041-.336.063a.743.743 0 0 0-.081.029c-.024.127-.044.279-.08.428a4.29 4.29 0 0 1-1.579 2.554v.231a4.593 4.593 0 0 0 1.801-3.076 4.772 4.772 0 0 0 3.565-2.527 3.667 3.667 0 0 1-3.4 2.674 3.717 3.717 0 0 1-1.974 3.114v1.04a3.68 3.68 0 0 1 1.962 3.1 3.855 3.855 0 0 1 2.74 1.357 2.859 2.859 0 0 1 .674 1.342 4.735 4.735 0 0 0-3.571-2.543 4.422 4.422 0 0 0-.867-2.137 4.8 4.8 0 0 0-.935-.92v.224a4.254 4.254 0 0 1 1.582 2.559c.031.138.053.277.082.434.118.018.227.038.336.054a4.379 4.379 0 0 1 3.4 3.052 2.133 2.133 0 0 1-.393 2.008c-.047.058-.1.116-.148.174h1.523c-.026-.033-.055-.062-.081-.1a2.206 2.206 0 0 1-.4-2.2 4.262 4.262 0 0 1 3.436-2.949c.081-.015.164-.026.284-.045a4.2 4.2 0 0 1 1.33-2.728 4.07 4.07 0 0 1 2.125-1.093 1.761 1.761 0 0 1 1.194.192 4.907 4.907 0 0 1 1.985 1.987 1.98 1.98 0 0 1 .108 1.529 4.323 4.323 0 0 1-3.473 3.071c-.083.011-.164.027-.266.043-.018.089-.037.169-.051.251a4.414 4.414 0 0 1-.878 2.035h.211a4.647 4.647 0 0 0 .86-2.134 4.783 4.783 0 0 0 3.538-2.451 3.356 3.356 0 0 1-1.266 1.846 3.888 3.888 0 0 1-2.109.755 4.2 4.2 0 0 1-.684 1.984h.718a4.39 4.39 0 0 0 .48-1.448 4.327 4.327 0 0 0 3.109-2.081 4.319 4.319 0 0 0 3.1 2.079 4.578 4.578 0 0 0 .488 1.45h.7a3.768 3.768 0 0 1-.646-1.969 3.705 3.705 0 0 1-3.428-2.685 4.763 4.763 0 0 0 3.557 2.52 4.752 4.752 0 0 0 .868 2.134h.232a4.545 4.545 0 0 1-.855-1.836c-.031-.138-.051-.278-.081-.441-.112-.019-.22-.037-.327-.058a4.252 4.252 0 0 1-3.407-3.044 2.288 2.288 0 0 1 .666-2.374c.193-.208.4-.4.6-.6a2.872 2.872 0 0 1 .258-.222 2.223 2.223 0 0 1 2.236-.416 4.266 4.266 0 0 1 2.909 3.282c.032.138.055.275.083.425.109.018.206.031.3.05a4.253 4.253 0 0 1 3.418 3.026 2.207 2.207 0 0 1-.5 2.212h1.5a5.424 5.424 0 0 1-.355-.521 2.031 2.031 0 0 1-.171-1.643 4.329 4.329 0 0 1 3.511-3.081c.069-.009.137-.024.248-.042a4.071 4.071 0 0 1 .82-2.148 4.217 4.217 0 0 1 2.046-1.515v-.542a4.325 4.325 0 0 1-2.829-3.384c-.011-.083-.025-.166-.041-.268-.145-.029-.282-.059-.419-.084a4.285 4.285 0 0 1-3.419-3.482 1.758 1.758 0 0 1 .243-1.187 5.021 5.021 0 0 1 1.84-1.849 1.943 1.943 0 0 1 1.481-.2 4.325 4.325 0 0 1 3.144 3.1v-.544a4.873 4.873 0 0 0-2.242-2.489 3.606 3.606 0 0 1 2.242 1.842v-1.1a4.88 4.88 0 0 0-1.184-1 4.937 4.937 0 0 0 1.184-1v-1.083a3.576 3.576 0 0 1-.827 1.071 2.831 2.831 0 0 1-1.352.72 4.874 4.874 0 0 0 2.18-2.473v-.525a4.212 4.212 0 0 1-3.411 3.132 1.754 1.754 0 0 1-1.259-.274 5.135 5.135 0 0 1-1.76-1.753 2.039 2.039 0 0 1-.2-1.68 4.326 4.326 0 0 1 3.509-3.083c.07-.009.138-.024.226-.038.02-.083.047-.163.058-.243a4.274 4.274 0 0 1 2.833-3.423v-.542a4.336 4.336 0 0 1-2.827-3.364c-.013-.1-.034-.192-.053-.3-.235-.044-.46-.075-.68-.129a4.134 4.134 0 0 1-1.564-.78h-.252c.074.064.144.131.222.19a4.408 4.408 0 0 0 2.122.855 4.76 4.76 0 0 0 2.517 3.568 3.682 3.682 0 0 1-2.671-3.4 3.853 3.853 0 0 1-2.6-1.211h-.8a4.293 4.293 0 0 0 2.874 1.736 4.324 4.324 0 0 0 2.073 3.1 4.317 4.317 0 0 0-2.074 3.1 4.32 4.32 0 0 0-3.133 2.164 4.313 4.313 0 0 0-3.111-2.144c-.648-1.92-.648-1.92-2.084-3.128a4.31 4.31 0 0 0 2.047-3.081 4.274 4.274 0 0 0 2.863-1.738h-.783a3.777 3.777 0 0 1-.418.393 3.863 3.863 0 0 1-2.192.8 3.8 3.8 0 0 1-1.354 2.752 2.814 2.814 0 0 1-1.345.667 5.338 5.338 0 0 0 1.692-1.448 4.433 4.433 0 0 0 .849-2.117 4.459 4.459 0 0 0 2.1-.834c.092-.067.174-.144.259-.217h-.252a4.483 4.483 0 0 1-1.821.829c-.125.027-.251.046-.422.076-.025.137-.046.289-.081.436a4.219 4.219 0 0 1-3.125 3.322 2.3 2.3 0 0 1-2.315-.732c-.176-.165-.344-.338-.512-.511a2.349 2.349 0 0 1-.637-2.681 5.351 5.351 0 0 1 .366-.739h-.208c-.063.107-.127.209-.185.322a1.213 1.213 0 0 1 .049-.322zm14.878 8.458a3.849 3.849 0 0 1 1.383-2.748 2.446 2.446 0 0 1 1.315-.621 4.671 4.671 0 0 0-2.537 3.531 4.636 4.636 0 0 0-3.515 2.514c.018-1.192 1.508-2.369 3.354-2.671m-23.964.78a3.879 3.879 0 0 1 2.125-.761 3.866 3.866 0 0 1 1.424-2.8 2.288 2.288 0 0 1 1.267-.58 4.661 4.661 0 0 0-2.53 3.529 4.639 4.639 0 0 0-3.521 2.519 3.011 3.011 0 0 1 1.235-1.9m-1.3 2.628a4.325 4.325 0 0 1 3.492-3.05c.069-.009.137-.021.25-.038.031-.2.051-.364.086-.529a4.3 4.3 0 0 1 3.488-3.312 1.717 1.717 0 0 1 1.143.236 5.042 5.042 0 0 1 1.88 1.864 2.021 2.021 0 0 1 .148 1.646 4.326 4.326 0 0 1-3.49 3.051c-.071.009-.14.021-.228.035a1.844 1.844 0 0 0-.063.237 4.268 4.268 0 0 1-3.534 3.608 1.728 1.728 0 0 1-1.145-.237A5.056 5.056 0 0 1 8 222.117a2.016 2.016 0 0 1-.148-1.646m11.258-.582a5.014 5.014 0 0 0 .74.636 4.335 4.335 0 0 0 .831.431c.287.114.593.18.946.285a4.866 4.866 0 0 0 .692 1.765 4.707 4.707 0 0 0 1.468 1.354 4.322 4.322 0 0 0-2.148 3.126c-1.647.449-1.779.536-3.128 2.059a4.321 4.321 0 0 0-3.082-2.043 4.329 4.329 0 0 0-2.139-3.135 4.366 4.366 0 0 0 2.135-3.148 4.315 4.315 0 0 0 3.088-2.054c.211.26.386.51.6.724m-.358-1.9a4.732 4.732 0 0 0 3.557 2.54 4.72 4.72 0 0 0 2.635 3.6 3.4 3.4 0 0 1-1.959-1.249 3.786 3.786 0 0 1-.809-2.19 3.861 3.861 0 0 1-2.751-1.356 2.889 2.889 0 0 1-.673-1.344m6.116 6.625a4.739 4.739 0 0 0-2.552 3.56 4.732 4.732 0 0 0-3.56 2.55 2.863 2.863 0 0 1 .677-1.352 3.045 3.045 0 0 1 1.2-.932c.481-.192.99-.315 1.547-.486a3.711 3.711 0 0 1 1.186-2.532 3.074 3.074 0 0 1 1.5-.808m-6.523 6.185a4.744 4.744 0 0 0-3.6-2.622 4.726 4.726 0 0 0-2.537-3.558 3.355 3.355 0 0 1 1.9 1.253 3.8 3.8 0 0 1 .783 2.144 3.733 3.733 0 0 1 3.458 2.783m-6.027-6.728c1.684-1.281 2-1.731 2.445-3.541a4.771 4.771 0 0 0 3.518-2.452 3.349 3.349 0 0 1-1.265 1.846 3.877 3.877 0 0 1-2.109.755 3.71 3.71 0 0 1-2.589 3.392m-6.249.284l1.542-1.547 1.54 1.552c-.5.5-1.047 1.049-1.546 1.551l-1.54-1.555m1.543 16.174a4.344 4.344 0 0 0-3.141-2.146 4.311 4.311 0 0 0-2.089-3.1 4.343 4.343 0 0 0 2.083-3.1 4.321 4.321 0 0 0 3.134-2.157 4.36 4.36 0 0 0 3.157 2.149 4.329 4.329 0 0 0 2.069 3.1 4.326 4.326 0 0 0-2.069 3.1 4.332 4.332 0 0 0-3.148 2.153m3.828-1.469a4.619 4.619 0 0 0-3.508 2.5c-.013-1.16 1.518-2.371 3.347-2.657a3.831 3.831 0 0 1 1.38-2.751 2.492 2.492 0 0 1 1.238-.615 4.743 4.743 0 0 0-2.457 3.526m.619-5.276a3.894 3.894 0 0 1-.771-2.129 3.7 3.7 0 0 1-3.445-2.771 5.273 5.273 0 0 0 1.477 1.752 4.378 4.378 0 0 0 2.114.849 4.742 4.742 0 0 0 2.527 3.569 3.376 3.376 0 0 1-1.9-1.27m2.77 1.333a4.326 4.326 0 0 1-3.192-3.465c-.013-.1-.032-.192-.051-.3-.233-.044-.456-.076-.675-.131a4.306 4.306 0 0 1-3.158-3.444 1.686 1.686 0 0 1 .214-1.108 4.956 4.956 0 0 1 1.92-1.941 1.934 1.934 0 0 1 1.446-.171 4.3 4.3 0 0 1 3.217 3.534c.008.069.019.138.032.228.144.03.28.062.416.087a4.283 4.283 0 0 1 3.427 3.476 1.753 1.753 0 0 1-.239 1.186 5.039 5.039 0 0 1-1.836 1.854 1.969 1.969 0 0 1-1.521.2m3.7 1.638c-.5-.487-1.007-.99-1.5-1.473l1.513-1.5 1.467 1.514-1.479 1.46m3.9-1.691a2.318 2.318 0 0 1-2.48-.695c-.174-.167-.343-.339-.512-.511a2.349 2.349 0 0 1-.634-2.683 4.26 4.26 0 0 1 3.254-2.77c.124-.025.248-.047.393-.074.033-.17.058-.336.1-.5a4.255 4.255 0 0 1 3.012-3.235 2.321 2.321 0 0 1 2.434.727c.164.158.323.319.482.481a2.349 2.349 0 0 1 .656 2.677 4.264 4.264 0 0 1-3.241 2.787c-.124.028-.25.046-.419.076-.03.163-.049.3-.081.438a4.25 4.25 0 0 1-2.962 3.281m6.732-6.149a3.025 3.025 0 0 1-1.2 1.921 3.878 3.878 0 0 1-2.188.8 3.812 3.812 0 0 1-1.357 2.757 2.627 2.627 0 0 1-1.418.658 4.653 4.653 0 0 0 2.62-3.561 4.631 4.631 0 0 0 3.541-2.582m-3.535 10.147a4.707 4.707 0 0 0-2.635-3.6 3.364 3.364 0 0 1 1.958 1.247 3.774 3.774 0 0 1 .81 2.189 3.862 3.862 0 0 1 2.751 1.357 2.862 2.862 0 0 1 .673 1.344 4.729 4.729 0 0 0-3.557-2.54m8.467-2.071a4.31 4.31 0 0 0-.809 2.063 4.8 4.8 0 0 0-3.545 2.446 3.677 3.677 0 0 1 3.374-2.6 3.853 3.853 0 0 1 1.421-2.79 2.351 2.351 0 0 1 1.3-.588 4.9 4.9 0 0 0-1.74 1.464m-.825-5.495a4.616 4.616 0 0 0 2.564 3.531 2.985 2.985 0 0 1-1.907-1.2 3.865 3.865 0 0 1-.8-2.173 3.713 3.713 0 0 1-3.457-2.765 4.756 4.756 0 0 0 3.6 2.609m-.682.678a4.324 4.324 0 0 0 2.086 3.1 4.339 4.339 0 0 0-2.079 3.1 4.327 4.327 0 0 0-3.149 2.15 4.33 4.33 0 0 0-3.14-2.145 4.336 4.336 0 0 0-2.084-3.107 4.333 4.333 0 0 0 2.081-3.1 4.331 4.331 0 0 0 3.14-2.157 4.346 4.346 0 0 0 3.145 2.153m-3.128-9.363l1.553 1.554-1.561 1.555-1.589-1.586 1.6-1.523m-3.682-5.746a3.694 3.694 0 0 1 3.409 2.681 4.749 4.749 0 0 0-3.558-2.517 4.735 4.735 0 0 0-2.615-3.6 3.7 3.7 0 0 1 2.764 3.438m-5.5-3a2.215 2.215 0 0 1 2.2-.4 4.27 4.27 0 0 1 2.916 3.275c.031.139.054.278.084.438a4.322 4.322 0 0 1 3.337 2.165 4.668 4.668 0 0 1 .32.7 2.323 2.323 0 0 1-.6 2.615c-.194.206-.4.4-.6.6a2.944 2.944 0 0 1-.326.273 2.191 2.191 0 0 1-2.129.366 4.271 4.271 0 0 1-2.941-3.3c-.026-.125-.047-.251-.075-.4-.106-.02-.213-.04-.319-.062a4.258 4.258 0 0 1-3.414-3.036 2.193 2.193 0 0 1 .52-2.215c.276-.322.6-.608.9-.907a1.16 1.16 0 0 1 .133-.108m-.245-.617c-.5.485-1.016.993-1.52 1.484l-1.479-1.519c.478-.463 1-.97 1.5-1.459l1.5 1.494" class="cls-3" data-name="Path 133"/>
        <path id="Path_134" d="M35.272 216.94c.03.929.318 1.358 1.029 1.524v-.4a2.055 2.055 0 0 1-.274-.13.47.47 0 0 1-.1-.08 1.628 1.628 0 0 1-.006-1.908 1.537 1.537 0 0 1 .379-.348v-.323a1.748 1.748 0 0 0-1.029 1.661" class="cls-3" data-name="Path 134"/>
        <path id="Path_135" d="M32 219.484a1.731 1.731 0 0 0-.764 1.95 1.767 1.767 0 0 0 1.8 1.193 1.739 1.739 0 0 0 1.541-1.83c-.047-1.123-.45-1.5-1.5-1.574a1.842 1.842 0 0 0-1.085.261m1.924.418a1.628 1.628 0 0 1 .01 1.908 1.412 1.412 0 0 1-1.748.437c-.022-.012-.033-.043-.074-.1a3.261 3.261 0 0 0 .4-.059.87.87 0 0 0 .634-.941c-.029-.328-.154-.456-.477-.489a.867.867 0 0 0-.95.617 3.976 3.976 0 0 0-.076.45 1.088 1.088 0 0 1-.187-1.037 1.539 1.539 0 0 1 2.363-.866.434.434 0 0 1 .1.08" class="cls-3" data-name="Path 135"/>
        <path id="Path_136" d="M35.272 238.778c.031.943.327 1.373 1.029 1.529v-.4a2 2 0 0 1-.27-.128.429.429 0 0 1-.1-.08 1.628 1.628 0 0 1-.011-1.908 1.537 1.537 0 0 1 .381-.35v-.323a1.746 1.746 0 0 0-1.029 1.662" class="cls-3" data-name="Path 136"/>
        <path id="Path_137" d="M33.064 244.461a1.741 1.741 0 0 0 1.521-1.807c-.038-1.14-.453-1.536-1.521-1.6a1.818 1.818 0 0 0-1.043.25 1.728 1.728 0 0 0-.776 1.981 1.758 1.758 0 0 0 1.819 1.171m-1.4-.879a1.08 1.08 0 0 1-.224-.952 1.539 1.539 0 0 1 2.4-.961.453.453 0 0 1 .122.117 1.662 1.662 0 0 1 .077 1.7 1.466 1.466 0 0 1-1.474.727.89.89 0 0 1-.439-.229 3.428 3.428 0 0 0 .368-.053.885.885 0 0 0 .633-1.093.418.418 0 0 0-.346-.328.883.883 0 0 0-1.084.7c-.018.1-.02.195-.037.37" class="cls-3" data-name="Path 137"/>
        <path id="Path_138" d="M16.014 240.116a1.735 1.735 0 0 0 .77-1.949 1.769 1.769 0 0 0-1.806-1.2 1.74 1.74 0 0 0-1.543 1.827c.045 1.123.448 1.507 1.5 1.576a1.818 1.818 0 0 0 1.08-.258m-2.227-1.512a1.457 1.457 0 0 1 1.578-1.385.8.8 0 0 1 .558.236c-.157.022-.282.028-.4.058a.887.887 0 0 0-.634 1.092.417.417 0 0 0 .346.329.883.883 0 0 0 1.075-.661 3.377 3.377 0 0 0 .045-.37.686.686 0 0 1 .242.529 1.453 1.453 0 0 1-1.363 1.6c-1.06.028-1.463-.376-1.446-1.424" class="cls-3" data-name="Path 138"/>
        <path id="Path_139" d="M11.192 244.464a1.776 1.776 0 0 0 1.562-1.826 1.939 1.939 0 0 0-.261-1.007.728.728 0 0 0-.249-.278 1.991 1.991 0 0 0-2.026-.059 1.718 1.718 0 0 0-.822 1.963 1.773 1.773 0 0 0 1.8 1.207m-1.565-1.939a1.54 1.54 0 0 1 2.364-.866.445.445 0 0 1 .1.08 1.628 1.628 0 0 1 .01 1.908 1.41 1.41 0 0 1-1.747.436c-.023-.012-.034-.043-.075-.1a3.266 3.266 0 0 0 .406-.06.868.868 0 0 0 .632-.94c-.028-.328-.152-.456-.475-.489a.869.869 0 0 0-.952.617 4.414 4.414 0 0 0-.075.45 1.091 1.091 0 0 1-.187-1.037" class="cls-3" data-name="Path 139"/>
        <path id="Path_140" d="M14.955 218.539A1.841 1.841 0 0 0 16 218.29a1.731 1.731 0 0 0 .781-1.98 1.761 1.761 0 0 0-1.818-1.175 1.741 1.741 0 0 0-1.523 1.8c.036 1.143.452 1.538 1.519 1.6m-.979-2.426a1.468 1.468 0 0 1 1.474-.728.844.844 0 0 1 .44.235c-.1.01-.189.013-.283.029a.876.876 0 0 0-.733 1.026.428.428 0 0 0 .445.425.872.872 0 0 0 1-.714c.018-.1.02-.2.037-.373a1.106 1.106 0 0 1 .218 1 1.542 1.542 0 0 1-2.4.919.448.448 0 0 1-.122-.116 1.668 1.668 0 0 1-.079-1.7" class="cls-3" data-name="Path 140"/>
        <path id="Path_141" d="M11.2 222.627a1.739 1.739 0 0 0 1.548-1.824c-.043-1.127-.448-1.509-1.493-1.581a1.842 1.842 0 0 0-1.083.257 1.73 1.73 0 0 0-.759 1.988 1.762 1.762 0 0 0 1.787 1.16m-.174-3.053c1.007.017 1.361.367 1.372 1.377a1.449 1.449 0 0 1-1.941 1.349 2.293 2.293 0 0 1-.245-.154c.2-.02.3-.021.4-.042a.881.881 0 0 0 .7-1.051.434.434 0 0 0-.389-.387.882.882 0 0 0-1.051.7 2.988 2.988 0 0 0-.034.337.645.645 0 0 1-.243-.519 1.456 1.456 0 0 1 1.437-1.61" class="cls-3" data-name="Path 141"/>
        <path id="Path_142" d="M22.143 230.177c-.042-.005-.085-.005-.164-.009-.119.018-.275.031-.426.065a1.744 1.744 0 0 0-1.3 2.077 1.725 1.725 0 0 0 2.116 1.221 1.78 1.78 0 0 0 1.249-1.94c-.133-1.014-.429-1.278-1.476-1.414m.729 2.713a1.409 1.409 0 0 1-1.635.326c-.021-.01-.034-.04-.071-.086.143-.031.275-.051.4-.089a.88.88 0 0 0 .631-.943.487.487 0 0 0-.487-.489.882.882 0 0 0-.945.63c-.035.12-.049.246-.085.429a1.412 1.412 0 0 1 .939-2.1l.084-.013a1.477 1.477 0 0 1 1.4.511 1.673 1.673 0 0 1-.23 1.829" class="cls-3" data-name="Path 142"/>
        <path id="Path_143" d="M25.822 229.508h.176a3.663 3.663 0 0 0 .413-.064 1.744 1.744 0 0 0 1.263-2.1 1.725 1.725 0 0 0-2.1-1.194 1.775 1.775 0 0 0-1.263 1.929c.13 1.029.436 1.3 1.508 1.429m-.877-2.576a1.446 1.446 0 0 1 1.666-.509 2.156 2.156 0 0 1 .213.122c-.217.046-.357.063-.488.106a.876.876 0 0 0-.6.923.491.491 0 0 0 .52.5.877.877 0 0 0 .909-.622c.041-.13.058-.269.1-.475a1.225 1.225 0 0 1 .208.859 1.54 1.54 0 0 1-2.381 1.073.564.564 0 0 1-.159-.137 1.663 1.663 0 0 1 .013-1.843" class="cls-3" data-name="Path 143"/>
        <path id="Path_144" d="M3.986 229.508h.175a3.637 3.637 0 0 0 .415-.065 1.746 1.746 0 0 0 1.261-2.1 1.725 1.725 0 0 0-2.1-1.191 1.776 1.776 0 0 0-1.26 1.931c.129 1.027.436 1.3 1.508 1.426m-.913-2.527a1.456 1.456 0 0 1 1.645-.58 2.6 2.6 0 0 1 .292.155c-.156.023-.222.029-.287.042a1.755 1.755 0 0 0-.248.059.888.888 0 0 0-.576.941.482.482 0 0 0 .5.478.881.881 0 0 0 .923-.6c.042-.132.059-.272.1-.453a.831.831 0 0 1 .227.632 1.438 1.438 0 0 1-.824 1.342 1.633 1.633 0 0 1-1.624-.117.382.382 0 0 1-.093-.087 1.683 1.683 0 0 1-.032-1.809" class="cls-3" data-name="Path 144"/>
        <path id="Path_145" d="M20.256 210.477a1.72 1.72 0 0 0 2.12 1.215 1.778 1.778 0 0 0 1.242-1.942c-.08-.608-.222-.943-.549-1.145h-2.025a1.737 1.737 0 0 0-.788 1.872m2.747-1.4a1.667 1.667 0 0 1-.015 1.844 1.446 1.446 0 0 1-1.666.507c-.049-.02-.093-.054-.215-.125.207-.041.333-.057.452-.091a.878.878 0 0 0 .642-.936.493.493 0 0 0-.521-.5.88.88 0 0 0-.92.663c-.032.119-.05.241-.086.42a1.184 1.184 0 0 1-.168-1.055 1.55 1.55 0 0 1 2.375-.84.461.461 0 0 1 .122.115" class="cls-3" data-name="Path 145"/>
        <path id="Path_146" d="M4.309 244.479a1.947 1.947 0 0 0 1.576-1.454 1.784 1.784 0 0 0-1.8-1.971c-1.2.067-1.516.457-1.62 1.534a1.748 1.748 0 0 0 .056.547 1.782 1.782 0 0 0 1.785 1.344m-1.234-2.663a.476.476 0 0 1 .11-.127 1.642 1.642 0 0 1 1.876.02 1.435 1.435 0 0 1 .459 1.71 1.571 1.571 0 0 1-.11.155c-.029-.181-.038-.292-.064-.4a.872.872 0 0 0-1.023-.674.448.448 0 0 0-.405.373.891.891 0 0 0 .636 1.054c.119.032.244.038.407.064a1.021 1.021 0 0 1-1.024.188 1.545 1.545 0 0 1-.859-2.364" class="cls-3" data-name="Path 146"/>
        <path id="Path_147" d="M22.015 218.543c1.194-.068 1.513-.458 1.615-1.539a1.8 1.8 0 0 0-1.848-1.886 1.948 1.948 0 0 0-1.57 1.46 1.783 1.783 0 0 0 1.8 1.965m-1.438-2.364c.019-.035.047-.064.1-.138.033.166.051.3.086.423a.846.846 0 0 0 .844.644c.434 0 .625-.2.6-.636a.887.887 0 0 0-.7-.812c-.107-.024-.216-.03-.37-.049a1.018 1.018 0 0 1 1.027-.193 1.545 1.545 0 0 1 .86 2.364.491.491 0 0 1-.111.126 1.639 1.639 0 0 1-1.875-.019 1.435 1.435 0 0 1-.46-1.71" class="cls-3" data-name="Path 147"/>
        <path id="Path_148" d="M26.068 222.635a1.792 1.792 0 0 0 1.613-1.287 1.723 1.723 0 0 0-1.55-2.113c-1.3-.066-1.731.381-1.824 1.479a1.759 1.759 0 0 0 1.761 1.921m-.051-3.06a1.434 1.434 0 0 1 1.237 2.17c-.034-.191-.048-.316-.079-.436a.853.853 0 0 0-.92-.654c-.36.024-.506.172-.524.536a.887.887 0 0 0 .685.906 3.377 3.377 0 0 0 .363.049.647.647 0 0 1-.532.24 1.456 1.456 0 0 1-1.582-1.5c.04-.951.367-1.289 1.352-1.307" class="cls-3" data-name="Path 148"/>
        <path id="Path_149" d="M4.322 222.641a1.943 1.943 0 0 0 1.564-1.465 1.782 1.782 0 0 0-1.81-1.958c-1.191.07-1.508.461-1.609 1.546a1.8 1.8 0 0 0 1.855 1.877m-1.256-2.646a.477.477 0 0 1 .176-.178 1.537 1.537 0 0 1 2.4 1.087 1.178 1.178 0 0 1-.219.845c-.034-.192-.047-.316-.08-.436a.855.855 0 0 0-.917-.659c-.361.022-.507.169-.528.532a.891.891 0 0 0 .68.911c.108.026.222.03.415.054a1.138 1.138 0 0 1-1.078.186 1.543 1.543 0 0 1-.845-2.342" class="cls-3" data-name="Path 149"/>
        <path id="Path_150" d="M26.17 244.478A1.942 1.942 0 0 0 27.724 243a1.781 1.781 0 0 0-1.78-1.947c-1.22.055-1.545.464-1.641 1.556a1.751 1.751 0 0 0 .062.546 1.783 1.783 0 0 0 1.805 1.321m-1.265-2.65a.49.49 0 0 1 .177-.176 1.538 1.538 0 0 1 2.395 1.092 1.313 1.313 0 0 1-.21.843c-.036-.178-.054-.289-.082-.4a.86.86 0 0 0-.971-.693.452.452 0 0 0-.476.446.892.892 0 0 0 .677.993 4.083 4.083 0 0 0 .413.054 1.147 1.147 0 0 1-1.084.185 1.544 1.544 0 0 1-.839-2.345" class="cls-3" data-name="Path 150"/>
        <path id="Path_151" d="M21.767 236.956a1.94 1.94 0 0 0-1.556 1.473 1.781 1.781 0 0 0 1.778 1.95c1.219-.055 1.546-.463 1.641-1.554a1.749 1.749 0 0 0-.06-.546 1.782 1.782 0 0 0-1.8-1.323m1.26 2.658a.541.541 0 0 1-.11.128 1.64 1.64 0 0 1-1.875-.014 1.434 1.434 0 0 1-.466-1.709 1.6 1.6 0 0 1 .1-.148c.031.157.046.271.074.384a.855.855 0 0 0 .9.689c.4-.013.563-.186.559-.589a.886.886 0 0 0-.695-.858c-.107-.025-.219-.03-.373-.05a1 1 0 0 1 1.022-.194 1.546 1.546 0 0 1 .868 2.361" class="cls-3" data-name="Path 151"/>
        <path id="Path_152" d="M36.3 211.6v-.32a1.561 1.561 0 0 1-.433-2.167.412.412 0 0 1 .144-.152 2.45 2.45 0 0 1 .289-.138v-.217h-.46a1.725 1.725 0 0 0-.559 1.632A1.793 1.793 0 0 0 36.3 211.6" class="cls-3" data-name="Path 152"/>
        <path id="Path_153" d="M13.427 209.975a1.71 1.71 0 0 0 .952 1.586 1.483 1.483 0 0 0 1.649-.061 1.652 1.652 0 0 0 .806-1.661 1.753 1.753 0 0 0-.807-1.234h-2.033a1.625 1.625 0 0 0-.567 1.37m.754-1.018a1.609 1.609 0 0 1 1.66-.072 1.42 1.42 0 0 1 .759 1.374.98.98 0 0 1-.226.6 4.44 4.44 0 0 0-.1-.5.88.88 0 0 0-.934-.585.463.463 0 0 0-.476.495.859.859 0 0 0 .587.927c.141.045.292.061.507.1a1.292 1.292 0 0 1-.983.191 1.535 1.535 0 0 1-.944-2.383.409.409 0 0 1 .146-.149" class="cls-3" data-name="Path 153"/>
        <path id="Path_154" d="M14.88 230.185c-1.019.116-1.364.428-1.453 1.592a1.716 1.716 0 0 0 .8 1.531 1.508 1.508 0 0 0 1.723.077 1.658 1.658 0 0 0 .887-1.7 1.777 1.777 0 0 0-1.955-1.5m1.49 2.487c-.024-.161-.034-.279-.062-.392a.894.894 0 0 0-1-.667.441.441 0 0 0-.434.442.862.862 0 0 0 .657 1c.118.03.24.044.424.076a1.239 1.239 0 0 1-1.214.128 1.542 1.542 0 0 1-.71-2.308.412.412 0 0 1 .145-.151 1.607 1.607 0 0 1 1.659-.078 1.418 1.418 0 0 1 .764 1.37.813.813 0 0 1-.229.583" class="cls-3" data-name="Path 154"/>
        <path id="Path_155" d="M11.829 226.3a1.485 1.485 0 0 0-1.651.034 1.666 1.666 0 0 0-.832 1.65 1.721 1.721 0 0 0 1.644 1.509c1.242.041 1.707-.4 1.767-1.636a1.708 1.708 0 0 0-.928-1.557m.353 2.383a.6.6 0 0 1-.159.194 1.69 1.69 0 0 1-1.7.082 1.463 1.463 0 0 1-.728-1.471.815.815 0 0 1 .233-.432 2.015 2.015 0 0 0 .026.205 1.467 1.467 0 0 0 .091.324.877.877 0 0 0 .952.482.445.445 0 0 0 .415-.46.861.861 0 0 0-.523-.93 4.291 4.291 0 0 0-.539-.124 1.434 1.434 0 0 1 2.147 1.106 1.752 1.752 0 0 1-.217 1.024" class="cls-3" data-name="Path 155"/>
        <path id="Path_156" d="M35.287 232.067a1.722 1.722 0 0 0 1.014 1.372v-.312a1.465 1.465 0 0 1-.522-.583 1.627 1.627 0 0 1 .107-1.623.421.421 0 0 1 .114-.121 1.18 1.18 0 0 1 .3-.157v-.393c-.865.212-1.1.926-1.014 1.816" class="cls-3" data-name="Path 156"/>
        <path id="Path_157" d="M32.349 226.156a1.786 1.786 0 0 0-1.168 1.786 1.7 1.7 0 0 0 1.563 1.54c1.292.091 1.817-.4 1.906-1.643a5.883 5.883 0 0 0-.323-.9 1.7 1.7 0 0 0-1.978-.778m1.624 2.6a.417.417 0 0 1-.117.12 1.673 1.673 0 0 1-1.7.071 1.419 1.419 0 0 1-.728-1.429 2.452 2.452 0 0 1 .14-.47l.1.006c.008.055.014.11.023.165a1.584 1.584 0 0 0 .046.249.889.889 0 0 0 .924.6c.326-.033.458-.16.492-.478a.859.859 0 0 0-.608-.952c-.132-.04-.271-.054-.457-.089a.936.936 0 0 1 .684-.232 1.457 1.457 0 0 1 1.306.813 1.625 1.625 0 0 1-.1 1.622" class="cls-3" data-name="Path 157"/>
        <path id="Rectangle_118" d="M0 0h.882v41.078H0z" class="cls-3" data-name="Rectangle 118" transform="translate(10.673 207.555)"/>
        <path id="Rectangle_119" d="M0 0h.882v41.078H0z" class="cls-3" data-name="Rectangle 119" transform="translate(27.133 207.555)"/>
        <path id="Rectangle_120" d="M0 0h.793v170.713H0z" class="cls-3" data-name="Rectangle 120" transform="translate(18.814)"/>
    </g>
</svg>
