<svg xmlns="http://www.w3.org/2000/svg" id="Group_196" width="38.273" height="189.833" data-name="Group 196" viewBox="0 0 38.273 189.833">
    <defs>
        <style>
            .cls-1{fill:none}.cls-2{clip-path:url(#clip-path)}.cls-3{fill:#0e2b4a}
        </style>
        <clipPath id="clip-path">
            <path id="Rectangle_125" d="M0 0h38.273v189.833H0z" class="cls-1" data-name="Rectangle 125"/>
        </clipPath>
    </defs>
    <g id="Group_195" class="cls-2" data-name="Group 195">
        <path id="Path_158" d="M19.21 104.19c-1.72 0-2.619-3.24-2.619-6.442s.9-6.442 2.619-6.442 2.617 3.24 2.617 6.442-.9 6.442-2.617 6.442m0-11.671c-.421 0-1.406 1.779-1.406 5.229s.985 5.229 1.406 5.229 1.4-1.779 1.4-5.229-.984-5.229-1.4-5.229" class="cls-3" data-name="Path 158"/>
        <path id="Path_159" d="M21.257 107.172a2.047 2.047 0 1 1-2.048-2.047 2.047 2.047 0 0 1 2.048 2.047" class="cls-3" data-name="Path 159"/>
        <path id="Path_160" d="M20.456 103.955a1.247 1.247 0 1 1-1.247-1.247 1.248 1.248 0 0 1 1.247 1.247" class="cls-3" data-name="Path 160"/>
        <path id="Path_161" d="M38.257 129.142c.005-.161.007-.323.007-.486 0-6.006-2.654-10.919-11.438-14.45-6.891-2.77-7.615-7.314-7.615-7.314h-.15s-.724 4.544-7.616 7.314C2.663 117.737.008 122.65.008 128.656c0 .163 0 .325.007.486z" class="cls-3" data-name="Path 161"/>
        <path id="Path_162" d="M.006 167.573c0 .161-.006.324-.006.486 0 6.009 2.655 10.925 11.443 14.456 6.895 2.773 7.618 7.319 7.618 7.319h.15s.724-4.546 7.619-7.319c8.787-3.531 11.443-8.447 11.443-14.456 0-.162 0-.325-.007-.486z" class="cls-3" data-name="Path 162"/>
        <path id="Path_163" d="M38.264 168.339H.015v-39.958h38.249zm-37.286-.963H37.3v-38.032H.978z" class="cls-3" data-name="Path 163"/>
        <path id="Path_164" d="M36.745 166.751H1.535v-36.782h35.21zm-34.324-.886h33.438v-35.01H2.421z" class="cls-3" data-name="Path 164"/>
        <path id="Path_165" d="M36.3 166.308v-.384a3.47 3.47 0 0 1-.229.384z" class="cls-3" data-name="Path 165"/>
        <path id="Path_166" d="M3.789 131.47a4.728 4.728 0 0 0 2.365-1.059h-.271a4.44 4.44 0 0 1-1.847.833c-.125.027-.25.047-.408.077a4.267 4.267 0 0 1-1.341 2.726 3.885 3.885 0 0 1-.309.267v.233a4.644 4.644 0 0 0 1.811-3.077" class="cls-3" data-name="Path 166"/>
        <path id="Path_167" d="M36.3 165.244v-.51a4.148 4.148 0 0 1-.8 1.574h.219a4.408 4.408 0 0 0 .585-1.064" class="cls-3" data-name="Path 167"/>
        <path id="Path_168" d="M18.24 130.411a2.8 2.8 0 0 1 .1.373c-.069-.13-.144-.251-.219-.373H17.9a4.176 4.176 0 0 1 .533 1.448 1.791 1.791 0 0 1-.263 1.224 5.139 5.139 0 0 1-1.781 1.793 1.99 1.99 0 0 1-1.561.211 4.327 4.327 0 0 1-3.185-3.471c-.014-.1-.034-.191-.052-.3-.237-.044-.461-.075-.681-.129a4.141 4.141 0 0 1-1.564-.78h-.269a4.681 4.681 0 0 0 2.362 1.055 4.757 4.757 0 0 0 2.534 3.567 3.406 3.406 0 0 1-1.9-1.26 3.838 3.838 0 0 1-.779-2.145 3.937 3.937 0 0 1-2.615-1.217h-.793a4.244 4.244 0 0 0 .312.373 4.778 4.778 0 0 0 .734.645 4.561 4.561 0 0 0 .864.454c.3.122.621.191.951.29.365 1.491.551 1.771 2.049 3.1a4.3 4.3 0 0 0-2.035 3.077 4.338 4.338 0 0 0-3.143 2.146 4.36 4.36 0 0 0-3.144-2.137 4.346 4.346 0 0 0-2.076-3.1 4.388 4.388 0 0 0 2.067-3.109 4.275 4.275 0 0 0 2.861-1.738h-.794a3.861 3.861 0 0 1-2.592 1.208 3.676 3.676 0 0 1-1.962 3.1v1.046a3.678 3.678 0 0 1 1.963 3.1 3.7 3.7 0 0 1 3.411 2.678 4.768 4.768 0 0 0-3.552-2.503 4.65 4.65 0 0 0-1.818-3.084v.238a4.255 4.255 0 0 1 1.584 2.578c.031.135.056.273.083.411.228.043.441.068.644.124a4.3 4.3 0 0 1 3.007 2.721 2.348 2.348 0 0 1-.61 2.653 23.69 23.69 0 0 1-.572.571 3.017 3.017 0 0 1-.291.25 2.214 2.214 0 0 1-2.2.4 4.73 4.73 0 0 1-1.644-.974v.224a5.79 5.79 0 0 0 1.112.785 4.411 4.411 0 0 1-1.112-.5v1.437a2.6 2.6 0 0 1 1.049-.445 5.746 5.746 0 0 0-1.049.743v.237a4.367 4.367 0 0 1 1.51-.931 2.362 2.362 0 0 1 2.649.631c.183.176.364.357.541.541A2.342 2.342 0 0 1 7.3 150.3a4.265 4.265 0 0 1-3.245 2.782c-.111.025-.223.041-.335.063a.668.668 0 0 0-.081.029c-.024.127-.045.279-.08.428a4.3 4.3 0 0 1-1.579 2.554v.231a4.6 4.6 0 0 0 1.806-3.076 4.772 4.772 0 0 0 3.565-2.527 3.668 3.668 0 0 1-3.4 2.674 3.719 3.719 0 0 1-1.974 3.114v1.04a3.682 3.682 0 0 1 1.962 3.1 3.851 3.851 0 0 1 2.74 1.357 2.849 2.849 0 0 1 .67 1.343 4.728 4.728 0 0 0-3.57-2.542 4.431 4.431 0 0 0-.867-2.138 4.861 4.861 0 0 0-.935-.928v.224a4.253 4.253 0 0 1 1.581 2.559c.032.138.054.278.083.434.117.018.226.038.336.054a4.377 4.377 0 0 1 3.4 3.052 2.133 2.133 0 0 1-.392 2.008c-.048.058-.1.116-.148.174H8.36c-.026-.033-.056-.062-.081-.1a2.2 2.2 0 0 1-.4-2.2 4.262 4.262 0 0 1 3.435-2.949c.082-.015.165-.026.284-.045a4.207 4.207 0 0 1 1.331-2.728 4.062 4.062 0 0 1 2.125-1.093 1.761 1.761 0 0 1 1.194.192 4.9 4.9 0 0 1 1.984 1.987 1.971 1.971 0 0 1 .108 1.529 4.322 4.322 0 0 1-3.472 3.071c-.083.011-.165.027-.266.043-.018.089-.037.169-.051.251a4.425 4.425 0 0 1-.878 2.035h.211a4.647 4.647 0 0 0 .86-2.134 4.783 4.783 0 0 0 3.538-2.451 3.361 3.361 0 0 1-1.266 1.846 3.889 3.889 0 0 1-2.11.755 4.2 4.2 0 0 1-.683 1.984h.718a4.413 4.413 0 0 0 .48-1.448 4.329 4.329 0 0 0 3.109-2.081 4.319 4.319 0 0 0 3.1 2.079 4.578 4.578 0 0 0 .488 1.45h.7a3.786 3.786 0 0 1-.646-1.969 3.706 3.706 0 0 1-3.428-2.685 4.763 4.763 0 0 0 3.558 2.52 4.752 4.752 0 0 0 .868 2.134h.23a4.556 4.556 0 0 1-.854-1.836c-.031-.138-.052-.278-.081-.441-.112-.019-.22-.037-.328-.058a4.255 4.255 0 0 1-3.407-3.044 2.29 2.29 0 0 1 .666-2.374c.193-.208.4-.4.6-.6a2.872 2.872 0 0 1 .258-.222 2.225 2.225 0 0 1 2.236-.416 4.267 4.267 0 0 1 2.91 3.289c.032.138.055.275.083.425.109.018.206.031.3.05A4.251 4.251 0 0 1 29.2 164.1a2.205 2.205 0 0 1-.5 2.212h1.5a5.433 5.433 0 0 1-.356-.521 2.034 2.034 0 0 1-.17-1.643 4.328 4.328 0 0 1 3.51-3.081c.07-.009.138-.023.249-.042a4.069 4.069 0 0 1 .819-2.148 4.22 4.22 0 0 1 2.047-1.515v-.542a4.325 4.325 0 0 1-2.829-3.384c-.011-.083-.026-.166-.041-.268-.145-.029-.282-.059-.419-.084a4.285 4.285 0 0 1-3.419-3.482 1.755 1.755 0 0 1 .243-1.186 5.016 5.016 0 0 1 1.84-1.85 1.942 1.942 0 0 1 1.481-.2 4.325 4.325 0 0 1 3.144 3.1v-.544a4.877 4.877 0 0 0-2.242-2.489 3.611 3.611 0 0 1 2.242 1.842v-1.1a4.9 4.9 0 0 0-1.184-1 4.953 4.953 0 0 0 1.184-1v-1.083a3.579 3.579 0 0 1-.828 1.071 2.826 2.826 0 0 1-1.352.72 4.872 4.872 0 0 0 2.18-2.463v-.525a4.212 4.212 0 0 1-3.411 3.132 1.753 1.753 0 0 1-1.259-.274A5.147 5.147 0 0 1 29.868 144a2.039 2.039 0 0 1-.194-1.68 4.325 4.325 0 0 1 3.509-3.083c.069-.01.138-.024.225-.037.02-.084.047-.164.058-.244a4.277 4.277 0 0 1 2.834-3.423v-.542a4.336 4.336 0 0 1-2.827-3.364c-.013-.1-.034-.192-.053-.3-.236-.044-.46-.075-.68-.129a4.127 4.127 0 0 1-1.564-.78h-.252c.074.064.143.131.222.19a4.408 4.408 0 0 0 2.122.855 4.761 4.761 0 0 0 2.516 3.568 3.683 3.683 0 0 1-2.671-3.4 3.852 3.852 0 0 1-2.594-1.21h-.8a4.291 4.291 0 0 0 2.874 1.736 4.324 4.324 0 0 0 2.073 3.1 4.314 4.314 0 0 0-2.074 3.1 4.32 4.32 0 0 0-3.145 2.152 4.313 4.313 0 0 0-3.111-2.144c-.649-1.92-.649-1.92-2.084-3.128a4.312 4.312 0 0 0 2.047-3.081 4.276 4.276 0 0 0 2.863-1.738h-.783a3.672 3.672 0 0 1-2.61 1.2 3.8 3.8 0 0 1-1.354 2.752 2.819 2.819 0 0 1-1.345.667 5.325 5.325 0 0 0 1.692-1.448 4.433 4.433 0 0 0 .849-2.117 4.464 4.464 0 0 0 2.1-.834c.092-.067.174-.144.259-.217h-.252a4.483 4.483 0 0 1-1.821.829c-.125.027-.251.046-.422.076-.025.137-.046.289-.081.436a4.219 4.219 0 0 1-3.126 3.322 2.3 2.3 0 0 1-2.314-.732c-.176-.165-.344-.338-.513-.511a2.35 2.35 0 0 1-.636-2.681 5.351 5.351 0 0 1 .366-.739h-.208c-.063.107-.127.209-.185.322a1.173 1.173 0 0 1 .049-.322zm14.878 8.458a3.846 3.846 0 0 1 1.383-2.753 2.446 2.446 0 0 1 1.315-.621 4.674 4.674 0 0 0-2.538 3.531 4.634 4.634 0 0 0-3.514 2.514c.018-1.192 1.507-2.369 3.354-2.671m-23.965.78a3.885 3.885 0 0 1 2.125-.761 3.867 3.867 0 0 1 1.425-2.8 2.288 2.288 0 0 1 1.266-.58 4.663 4.663 0 0 0-2.53 3.529 4.636 4.636 0 0 0-3.52 2.519 3.012 3.012 0 0 1 1.234-1.9m-1.3 2.628a4.323 4.323 0 0 1 3.491-3.049l.251-.039c.031-.2.051-.364.086-.529a4.3 4.3 0 0 1 3.487-3.312 1.724 1.724 0 0 1 1.144.235 5.052 5.052 0 0 1 1.88 1.865 2.023 2.023 0 0 1 .148 1.647 4.328 4.328 0 0 1-3.49 3.05c-.071.009-.14.021-.228.035a1.694 1.694 0 0 0-.063.237 4.27 4.27 0 0 1-3.534 3.608 1.732 1.732 0 0 1-1.145-.236A5.059 5.059 0 0 1 8 143.923a2.016 2.016 0 0 1-.148-1.646m11.258-.582a5.014 5.014 0 0 0 .74.636 4.327 4.327 0 0 0 .83.431c.288.114.594.18.947.284a4.864 4.864 0 0 0 .692 1.766 4.692 4.692 0 0 0 1.467 1.354 4.323 4.323 0 0 0-2.147 3.126c-1.647.449-1.78.536-3.128 2.059a4.321 4.321 0 0 0-3.083-2.043 4.328 4.328 0 0 0-2.138-3.135 4.369 4.369 0 0 0 2.135-3.148 4.315 4.315 0 0 0 3.087-2.054c.212.26.387.51.6.724m-.358-1.9a4.731 4.731 0 0 0 3.557 2.54 4.719 4.719 0 0 0 2.634 3.6 3.4 3.4 0 0 1-1.958-1.249 3.779 3.779 0 0 1-.809-2.19 3.861 3.861 0 0 1-2.751-1.356 2.88 2.88 0 0 1-.673-1.344m6.116 6.625a4.737 4.737 0 0 0-2.552 3.56 4.732 4.732 0 0 0-3.56 2.551 2.861 2.861 0 0 1 .677-1.353 3.042 3.042 0 0 1 1.2-.932c.482-.192.99-.314 1.547-.486a3.712 3.712 0 0 1 1.187-2.532 3.074 3.074 0 0 1 1.5-.808m-6.518 6.183a4.744 4.744 0 0 0-3.6-2.622 4.727 4.727 0 0 0-2.538-3.558 3.354 3.354 0 0 1 1.9 1.253 3.786 3.786 0 0 1 .782 2.144 3.733 3.733 0 0 1 3.459 2.783m-6.027-6.728c1.684-1.281 2-1.731 2.444-3.541a4.774 4.774 0 0 0 3.519-2.452 3.36 3.36 0 0 1-1.265 1.847 3.888 3.888 0 0 1-2.11.754 3.707 3.707 0 0 1-2.588 3.392m-6.249.284l1.542-1.547 1.539 1.552-1.546 1.551-1.535-1.556m1.543 16.174a4.346 4.346 0 0 0-3.141-2.146 4.311 4.311 0 0 0-2.089-3.1 4.346 4.346 0 0 0 2.083-3.1 4.318 4.318 0 0 0 3.126-2.154 4.364 4.364 0 0 0 3.157 2.149 4.333 4.333 0 0 0 2.07 3.1 4.33 4.33 0 0 0-2.07 3.1 4.329 4.329 0 0 0-3.147 2.153m3.828-1.469a4.619 4.619 0 0 0-3.509 2.5c-.013-1.16 1.518-2.371 3.348-2.657a3.831 3.831 0 0 1 1.38-2.751 2.5 2.5 0 0 1 1.238-.616 4.744 4.744 0 0 0-2.457 3.527m.618-5.276a3.892 3.892 0 0 1-.77-2.129 3.7 3.7 0 0 1-3.445-2.771 5.273 5.273 0 0 0 1.477 1.752 4.37 4.37 0 0 0 2.114.849 4.74 4.74 0 0 0 2.527 3.569 3.381 3.381 0 0 1-1.9-1.27m2.771 1.333a4.326 4.326 0 0 1-3.192-3.465c-.014-.1-.033-.192-.051-.3-.233-.044-.457-.076-.675-.131a4.306 4.306 0 0 1-3.158-3.444 1.686 1.686 0 0 1 .214-1.108 4.949 4.949 0 0 1 1.92-1.941 1.929 1.929 0 0 1 1.446-.17 4.3 4.3 0 0 1 3.217 3.533c.008.069.018.138.032.228.144.03.28.062.416.087a4.285 4.285 0 0 1 3.427 3.476 1.753 1.753 0 0 1-.239 1.186 5.046 5.046 0 0 1-1.836 1.854 1.969 1.969 0 0 1-1.521.2m3.7 1.638c-.5-.487-1.008-.99-1.5-1.473l1.514-1.5 1.467 1.514-1.479 1.46m3.9-1.691a2.317 2.317 0 0 1-2.48-.695 22.428 22.428 0 0 1-.512-.511 2.347 2.347 0 0 1-.634-2.683 4.262 4.262 0 0 1 3.254-2.77c.124-.025.248-.047.393-.074.033-.17.058-.336.1-.5a4.252 4.252 0 0 1 3.012-3.235 2.321 2.321 0 0 1 2.434.727c.164.158.322.319.482.481a2.351 2.351 0 0 1 .656 2.677 4.264 4.264 0 0 1-3.241 2.787c-.124.028-.251.046-.419.076-.03.163-.05.3-.081.438a4.25 4.25 0 0 1-2.962 3.281m6.731-6.149a3.017 3.017 0 0 1-1.2 1.921 3.873 3.873 0 0 1-2.188.8 3.808 3.808 0 0 1-1.356 2.757 2.627 2.627 0 0 1-1.411.664 4.657 4.657 0 0 0 2.62-3.561 4.625 4.625 0 0 0 3.54-2.582m-3.541 10.141a4.7 4.7 0 0 0-2.634-3.6 3.367 3.367 0 0 1 1.958 1.247 3.781 3.781 0 0 1 .81 2.189 3.864 3.864 0 0 1 2.751 1.357 2.851 2.851 0 0 1 .672 1.344 4.725 4.725 0 0 0-3.557-2.54M34.1 158.8a4.31 4.31 0 0 0-.809 2.063 4.8 4.8 0 0 0-3.545 2.446 3.676 3.676 0 0 1 3.373-2.6 3.858 3.858 0 0 1 1.422-2.79 2.348 2.348 0 0 1 1.3-.588A4.886 4.886 0 0 0 34.1 158.8m-.825-5.495a4.615 4.615 0 0 0 2.563 3.531 2.99 2.99 0 0 1-1.907-1.2 3.872 3.872 0 0 1-.8-2.173 3.711 3.711 0 0 1-3.456-2.765 4.755 4.755 0 0 0 3.6 2.609m-.682.678a4.324 4.324 0 0 0 2.086 3.1 4.336 4.336 0 0 0-2.079 3.1 4.326 4.326 0 0 0-3.149 2.15 4.33 4.33 0 0 0-3.141-2.145 4.33 4.33 0 0 0-2.084-3.107 4.332 4.332 0 0 0 2.082-3.1 4.325 4.325 0 0 0 3.139-2.157 4.346 4.346 0 0 0 3.146 2.153m-3.128-9.363l1.552 1.554-1.56 1.555-1.589-1.586c.5-.479 1.06-1.01 1.6-1.523m-3.682-5.746a3.694 3.694 0 0 1 3.409 2.681 4.751 4.751 0 0 0-3.559-2.517 4.731 4.731 0 0 0-2.615-3.6 3.7 3.7 0 0 1 2.765 3.438m-5.5-3a2.216 2.216 0 0 1 2.2-.4 4.269 4.269 0 0 1 2.917 3.275c.031.139.053.278.084.438a4.317 4.317 0 0 1 3.336 2.166 4.423 4.423 0 0 1 .32.7 2.325 2.325 0 0 1-.6 2.615c-.195.206-.4.4-.6.6a2.944 2.944 0 0 1-.326.273 2.193 2.193 0 0 1-2.13.366 4.272 4.272 0 0 1-2.94-3.3c-.027-.125-.048-.251-.075-.4l-.32-.062a4.258 4.258 0 0 1-3.413-3.036 2.193 2.193 0 0 1 .52-2.215c.275-.322.6-.608.9-.907a1.362 1.362 0 0 1 .133-.108m-.244-.617c-.5.485-1.016.993-1.52 1.484l-1.479-1.519 1.5-1.459 1.5 1.494" class="cls-3" data-name="Path 168"/>
        <path id="Path_169" d="M35.272 138.745c.029.929.317 1.358 1.029 1.524v-.4a2.054 2.054 0 0 1-.274-.13.445.445 0 0 1-.1-.08 1.627 1.627 0 0 1-.006-1.908 1.52 1.52 0 0 1 .379-.348v-.322a1.744 1.744 0 0 0-1.029 1.66" class="cls-3" data-name="Path 169"/>
        <path id="Path_170" d="M32 141.289a1.732 1.732 0 0 0-.765 1.95 1.769 1.769 0 0 0 1.806 1.193 1.741 1.741 0 0 0 1.541-1.83c-.047-1.123-.45-1.505-1.5-1.574a1.839 1.839 0 0 0-1.084.261m1.923.418a1.625 1.625 0 0 1 .01 1.908 1.41 1.41 0 0 1-1.747.437c-.023-.012-.034-.043-.075-.1a3.282 3.282 0 0 0 .406-.059.869.869 0 0 0 .633-.941c-.029-.328-.153-.456-.476-.489a.869.869 0 0 0-.951.617 4 4 0 0 0-.075.45 1.088 1.088 0 0 1-.187-1.037 1.539 1.539 0 0 1 2.363-.866.429.429 0 0 1 .1.08" class="cls-3" data-name="Path 170"/>
        <path id="Path_171" d="M35.272 160.583c.031.943.327 1.373 1.029 1.529v-.4a2.006 2.006 0 0 1-.271-.128.446.446 0 0 1-.1-.08 1.626 1.626 0 0 1-.012-1.907 1.526 1.526 0 0 1 .382-.351v-.323a1.746 1.746 0 0 0-1.029 1.662" class="cls-3" data-name="Path 171"/>
        <path id="Path_172" d="M33.064 166.267a1.741 1.741 0 0 0 1.521-1.807c-.038-1.14-.454-1.536-1.521-1.6a1.818 1.818 0 0 0-1.043.25 1.728 1.728 0 0 0-.776 1.981 1.758 1.758 0 0 0 1.819 1.171m-1.4-.88a1.074 1.074 0 0 1-.224-.951 1.539 1.539 0 0 1 2.4-.961.435.435 0 0 1 .121.117 1.662 1.662 0 0 1 .078 1.7 1.466 1.466 0 0 1-1.474.727.882.882 0 0 1-.439-.229 3.464 3.464 0 0 0 .368-.053.886.886 0 0 0 .633-1.093.421.421 0 0 0-.347-.328.882.882 0 0 0-1.083.7c-.018.1-.02.195-.037.369" class="cls-3" data-name="Path 172"/>
        <path id="Path_173" d="M16.014 161.923a1.737 1.737 0 0 0 .77-1.95 1.769 1.769 0 0 0-1.806-1.2 1.74 1.74 0 0 0-1.543 1.827c.045 1.123.448 1.507 1.5 1.576a1.827 1.827 0 0 0 1.08-.257m-2.227-1.519a1.456 1.456 0 0 1 1.578-1.386.8.8 0 0 1 .558.236c-.157.022-.282.028-.4.058a.887.887 0 0 0-.635 1.092.418.418 0 0 0 .346.329.882.882 0 0 0 1.075-.661 2.95 2.95 0 0 0 .045-.37.68.68 0 0 1 .242.529 1.451 1.451 0 0 1-1.362 1.6c-1.06.028-1.463-.376-1.446-1.423" class="cls-3" data-name="Path 173"/>
        <path id="Path_174" d="M11.192 166.269a1.777 1.777 0 0 0 1.562-1.826 1.941 1.941 0 0 0-.262-1.007.718.718 0 0 0-.248-.278 1.991 1.991 0 0 0-2.026-.059 1.718 1.718 0 0 0-.822 1.963 1.773 1.773 0 0 0 1.8 1.207m-1.57-1.939a1.541 1.541 0 0 1 2.365-.866.469.469 0 0 1 .1.08 1.628 1.628 0 0 1 .01 1.908 1.412 1.412 0 0 1-1.748.436c-.022-.012-.033-.043-.075-.1a3.052 3.052 0 0 0 .406-.061.864.864 0 0 0 .632-.939c-.027-.328-.152-.456-.474-.489a.869.869 0 0 0-.952.617 4.413 4.413 0 0 0-.075.45 1.091 1.091 0 0 1-.188-1.037" class="cls-3" data-name="Path 174"/>
        <path id="Path_175" d="M14.955 140.345A1.841 1.841 0 0 0 16 140.1a1.731 1.731 0 0 0 .781-1.98 1.762 1.762 0 0 0-1.818-1.175 1.741 1.741 0 0 0-1.523 1.8c.036 1.143.452 1.538 1.519 1.6m-.979-2.426a1.468 1.468 0 0 1 1.474-.728.845.845 0 0 1 .439.235c-.094.01-.189.013-.282.029a.877.877 0 0 0-.734 1.026.43.43 0 0 0 .446.425.873.873 0 0 0 1-.714c.018-.1.02-.2.037-.372a1.1 1.1 0 0 1 .217.995 1.542 1.542 0 0 1-2.4.92.467.467 0 0 1-.122-.117 1.666 1.666 0 0 1-.079-1.7" class="cls-3" data-name="Path 175"/>
        <path id="Path_176" d="M11.2 144.433a1.739 1.739 0 0 0 1.548-1.824c-.043-1.127-.447-1.509-1.492-1.581a1.84 1.84 0 0 0-1.083.257 1.731 1.731 0 0 0-.76 1.988 1.762 1.762 0 0 0 1.787 1.16m-.174-3.053c1.006.017 1.362.367 1.371 1.377a1.448 1.448 0 0 1-1.94 1.349 2.293 2.293 0 0 1-.245-.154c.2-.02.3-.021.4-.042a.881.881 0 0 0 .7-1.051.435.435 0 0 0-.389-.387.881.881 0 0 0-1.05.7 2.933 2.933 0 0 0-.035.337.648.648 0 0 1-.243-.519 1.456 1.456 0 0 1 1.437-1.61" class="cls-3" data-name="Path 176"/>
        <path id="Path_177" d="M22.143 151.983c-.042-.005-.085-.005-.164-.009-.119.018-.275.03-.426.065a1.745 1.745 0 0 0-1.3 2.077 1.726 1.726 0 0 0 2.117 1.221 1.78 1.78 0 0 0 1.249-1.94c-.133-1.014-.43-1.278-1.476-1.414m.729 2.713a1.409 1.409 0 0 1-1.635.326c-.022-.01-.034-.04-.072-.086.144-.031.276-.051.4-.089a.882.882 0 0 0 .632-.943.488.488 0 0 0-.487-.489.881.881 0 0 0-.945.63c-.036.12-.05.246-.085.429a1.411 1.411 0 0 1 .938-2.1c.028-.006.057-.009.084-.014a1.479 1.479 0 0 1 1.4.511 1.673 1.673 0 0 1-.23 1.829" class="cls-3" data-name="Path 177"/>
        <path id="Path_178" d="M25.823 151.314h.176a3.664 3.664 0 0 0 .413-.064 1.744 1.744 0 0 0 1.263-2.1 1.725 1.725 0 0 0-2.1-1.194 1.776 1.776 0 0 0-1.264 1.929c.13 1.029.437 1.3 1.509 1.429m-.877-2.576a1.446 1.446 0 0 1 1.666-.509 2.181 2.181 0 0 1 .212.122c-.216.046-.356.063-.488.106a.878.878 0 0 0-.6.923.493.493 0 0 0 .521.5.876.876 0 0 0 .909-.622c.04-.13.058-.269.1-.475a1.225 1.225 0 0 1 .208.859 1.54 1.54 0 0 1-2.381 1.073.551.551 0 0 1-.159-.137 1.662 1.662 0 0 1 .013-1.843" class="cls-3" data-name="Path 178"/>
        <path id="Path_179" d="M3.987 151.314h.175a3.671 3.671 0 0 0 .415-.065 1.746 1.746 0 0 0 1.261-2.1 1.725 1.725 0 0 0-2.1-1.191 1.776 1.776 0 0 0-1.261 1.931c.13 1.027.437 1.3 1.509 1.426m-.913-2.527a1.458 1.458 0 0 1 1.645-.58 2.6 2.6 0 0 1 .292.155c-.157.023-.222.029-.287.042a1.736 1.736 0 0 0-.249.059.89.89 0 0 0-.576.941.484.484 0 0 0 .5.478.882.882 0 0 0 .924-.6c.042-.132.059-.272.1-.453a.831.831 0 0 1 .226.632 1.437 1.437 0 0 1-.823 1.342 1.634 1.634 0 0 1-1.625-.117.4.4 0 0 1-.092-.087 1.683 1.683 0 0 1-.032-1.809" class="cls-3" data-name="Path 179"/>
        <path id="Path_180" d="M20.255 132.283a1.721 1.721 0 0 0 2.12 1.215 1.778 1.778 0 0 0 1.243-1.942c-.08-.608-.222-.942-.549-1.145h-2.025a1.739 1.739 0 0 0-.789 1.872m2.748-1.4a1.669 1.669 0 0 1-.015 1.844 1.446 1.446 0 0 1-1.666.507c-.049-.02-.093-.054-.215-.125.207-.041.332-.057.452-.091a.879.879 0 0 0 .642-.936.493.493 0 0 0-.521-.5.88.88 0 0 0-.92.663c-.032.119-.051.241-.086.42a1.184 1.184 0 0 1-.168-1.055 1.55 1.55 0 0 1 2.375-.84.476.476 0 0 1 .122.115" class="cls-3" data-name="Path 180"/>
        <path id="Path_181" d="M4.31 166.284a1.947 1.947 0 0 0 1.576-1.454 1.785 1.785 0 0 0-1.8-1.971c-1.2.067-1.517.457-1.62 1.534a1.8 1.8 0 0 0 1.841 1.891m-1.235-2.663a.479.479 0 0 1 .111-.127 1.642 1.642 0 0 1 1.876.02 1.437 1.437 0 0 1 .459 1.71 1.65 1.65 0 0 1-.111.155c-.028-.181-.038-.292-.064-.4a.871.871 0 0 0-1.025-.673.45.45 0 0 0-.406.373.891.891 0 0 0 .637 1.054c.118.032.244.038.407.064a1.021 1.021 0 0 1-1.024.188 1.545 1.545 0 0 1-.86-2.364" class="cls-3" data-name="Path 181"/>
        <path id="Path_182" d="M22.015 140.349c1.194-.068 1.513-.458 1.615-1.539a1.814 1.814 0 0 0-.057-.547 1.784 1.784 0 0 0-1.791-1.339 1.948 1.948 0 0 0-1.57 1.46 1.782 1.782 0 0 0 1.8 1.965m-1.438-2.364c.019-.035.046-.064.1-.139.033.167.051.3.087.424a.845.845 0 0 0 .844.644c.434 0 .624-.2.6-.636a.886.886 0 0 0-.7-.812c-.107-.024-.217-.03-.37-.049a1.02 1.02 0 0 1 1.027-.193 1.546 1.546 0 0 1 .86 2.364.491.491 0 0 1-.111.126 1.64 1.64 0 0 1-1.876-.019 1.436 1.436 0 0 1-.459-1.71" class="cls-3" data-name="Path 182"/>
        <path id="Path_183" d="M26.068 144.441a1.792 1.792 0 0 0 1.613-1.287 1.723 1.723 0 0 0-1.55-2.113c-1.3-.066-1.731.381-1.825 1.479a1.76 1.76 0 0 0 1.762 1.921m-.051-3.06a1.435 1.435 0 0 1 1.237 2.171c-.034-.192-.048-.317-.08-.437a.851.851 0 0 0-.919-.654c-.361.024-.506.172-.524.536a.886.886 0 0 0 .684.906 3.448 3.448 0 0 0 .363.049.644.644 0 0 1-.531.24 1.455 1.455 0 0 1-1.582-1.5c.04-.951.366-1.289 1.352-1.307" class="cls-3" data-name="Path 183"/>
        <path id="Path_184" d="M4.322 144.447a1.942 1.942 0 0 0 1.565-1.465 1.782 1.782 0 0 0-1.811-1.958c-1.19.07-1.508.461-1.608 1.546a1.8 1.8 0 0 0 1.854 1.877M3.066 141.8a.487.487 0 0 1 .177-.178 1.537 1.537 0 0 1 2.4 1.087 1.188 1.188 0 0 1-.219.845c-.035-.192-.049-.316-.081-.435a.853.853 0 0 0-.916-.66c-.362.022-.508.169-.529.532a.891.891 0 0 0 .681.911c.108.026.221.03.415.054a1.138 1.138 0 0 1-1.078.186 1.544 1.544 0 0 1-.846-2.342" class="cls-3" data-name="Path 184"/>
        <path id="Path_185" d="M26.17 166.284a1.942 1.942 0 0 0 1.555-1.476 1.781 1.781 0 0 0-1.78-1.947c-1.22.055-1.545.464-1.641 1.556a1.75 1.75 0 0 0 .062.546 1.782 1.782 0 0 0 1.8 1.321m-1.265-2.649a.5.5 0 0 1 .178-.177 1.538 1.538 0 0 1 2.4 1.092 1.315 1.315 0 0 1-.21.842c-.036-.177-.055-.288-.082-.4a.861.861 0 0 0-.972-.693.451.451 0 0 0-.475.446.891.891 0 0 0 .677.993 4.083 4.083 0 0 0 .413.054 1.147 1.147 0 0 1-1.084.185 1.544 1.544 0 0 1-.84-2.344" class="cls-3" data-name="Path 185"/>
        <path id="Path_186" d="M21.767 158.762a1.942 1.942 0 0 0-1.556 1.473 1.782 1.782 0 0 0 1.778 1.95c1.22-.055 1.547-.463 1.642-1.554a1.794 1.794 0 0 0-1.864-1.869m1.26 2.658a.5.5 0 0 1-.111.128 1.637 1.637 0 0 1-1.874-.014 1.434 1.434 0 0 1-.466-1.709 1.6 1.6 0 0 1 .1-.148c.031.157.046.271.075.384a.853.853 0 0 0 .894.689c.4-.013.563-.186.559-.589a.886.886 0 0 0-.695-.858c-.107-.025-.219-.03-.372-.05a1 1 0 0 1 1.021-.194 1.545 1.545 0 0 1 .868 2.361" class="cls-3" data-name="Path 186"/>
        <path id="Path_187" d="M36.3 133.406v-.32a1.561 1.561 0 0 1-.434-2.167.412.412 0 0 1 .144-.152 2.54 2.54 0 0 1 .29-.138v-.217h-.46a1.725 1.725 0 0 0-.559 1.632 1.791 1.791 0 0 0 1.02 1.362" class="cls-3" data-name="Path 187"/>
        <path id="Path_188" d="M13.427 131.781a1.71 1.71 0 0 0 .952 1.586 1.487 1.487 0 0 0 1.649-.06 1.656 1.656 0 0 0 .806-1.662 1.756 1.756 0 0 0-.807-1.234h-2.034a1.627 1.627 0 0 0-.566 1.37m.753-1.018a1.611 1.611 0 0 1 1.661-.072 1.421 1.421 0 0 1 .759 1.374.975.975 0 0 1-.227.6 4.214 4.214 0 0 0-.095-.5.881.881 0 0 0-.934-.585.462.462 0 0 0-.476.495.859.859 0 0 0 .587.927c.141.045.291.061.507.1a1.292 1.292 0 0 1-.983.191 1.536 1.536 0 0 1-.945-2.383.425.425 0 0 1 .146-.149" class="cls-3" data-name="Path 188"/>
        <path id="Path_189" d="M14.88 151.991c-1.019.116-1.363.428-1.453 1.592a1.717 1.717 0 0 0 .8 1.531 1.505 1.505 0 0 0 1.722.077 1.66 1.66 0 0 0 .887-1.7 1.777 1.777 0 0 0-1.955-1.5m1.491 2.487c-.026-.161-.036-.279-.064-.392a.891.891 0 0 0-1-.667.444.444 0 0 0-.436.442.864.864 0 0 0 .658 1c.118.03.241.044.424.076a1.239 1.239 0 0 1-1.214.128 1.543 1.543 0 0 1-.71-2.308.415.415 0 0 1 .146-.151 1.606 1.606 0 0 1 1.658-.078 1.415 1.415 0 0 1 .764 1.37.816.816 0 0 1-.228.583" class="cls-3" data-name="Path 189"/>
        <path id="Path_190" d="M11.828 148.1a1.486 1.486 0 0 0-1.65.033 1.665 1.665 0 0 0-.832 1.651 1.72 1.72 0 0 0 1.643 1.509c1.242.041 1.707-.4 1.768-1.636a1.708 1.708 0 0 0-.929-1.557m.354 2.383a.611.611 0 0 1-.159.194 1.69 1.69 0 0 1-1.7.082 1.462 1.462 0 0 1-.728-1.471.815.815 0 0 1 .233-.432 1.767 1.767 0 0 0 .026.205 1.468 1.468 0 0 0 .091.324.875.875 0 0 0 .952.482.445.445 0 0 0 .415-.46.863.863 0 0 0-.523-.93 4.159 4.159 0 0 0-.539-.124 1.435 1.435 0 0 1 2.147 1.106 1.752 1.752 0 0 1-.217 1.024" class="cls-3" data-name="Path 190"/>
        <path id="Path_191" d="M35.287 153.872a1.722 1.722 0 0 0 1.014 1.372v-.311a1.475 1.475 0 0 1-.522-.584 1.627 1.627 0 0 1 .107-1.623.421.421 0 0 1 .118-.12 1.18 1.18 0 0 1 .3-.157v-.393c-.865.212-1.1.926-1.014 1.816" class="cls-3" data-name="Path 191"/>
        <path id="Path_192" d="M32.349 147.962a1.788 1.788 0 0 0-1.169 1.786 1.7 1.7 0 0 0 1.564 1.54c1.291.091 1.817-.4 1.9-1.643a5.779 5.779 0 0 0-.323-.9 1.7 1.7 0 0 0-1.977-.778m1.624 2.6a.431.431 0 0 1-.117.12 1.675 1.675 0 0 1-1.7.071 1.42 1.42 0 0 1-.727-1.429 2.452 2.452 0 0 1 .14-.47l.1.006c.007.055.014.11.023.165a1.477 1.477 0 0 0 .046.249.889.889 0 0 0 .924.6.463.463 0 0 0 .492-.478.859.859 0 0 0-.609-.952 4.627 4.627 0 0 0-.456-.089.936.936 0 0 1 .684-.232 1.457 1.457 0 0 1 1.306.813 1.625 1.625 0 0 1-.1 1.622" class="cls-3" data-name="Path 192"/>
        <path id="Rectangle_122" d="M0 0h.882v41.078H0z" class="cls-3" data-name="Rectangle 122" transform="translate(10.673 129.361)"/>
        <path id="Rectangle_123" d="M0 0h.882v41.078H0z" class="cls-3" data-name="Rectangle 123" transform="translate(27.133 129.361)"/>
        <path id="Rectangle_124" d="M0 0h.793v92.519H0z" class="cls-3" data-name="Rectangle 124" transform="translate(18.814)"/>
    </g>
</svg>
