<svg xmlns="http://www.w3.org/2000/svg" width="90" height="104.867" viewBox="0 0 90 104.867">
    <defs>
        <style>
            .cls-1{fill:#3e83c2}
        </style>
    </defs>
    <g id="profits" transform="translate(-35.038)">
        <g id="Group_25" data-name="Group 25" transform="translate(82.968 26.922)">
            <g id="Group_24" data-name="Group 24">
                <path id="Path_14" d="M293.888 166.445v-37.572a2.006 2.006 0 0 0-2.122-1.973h-8.21a2.062 2.062 0 0 0-2.185 1.973v33.9a19.8 19.8 0 0 0-4.031.53v-23.356a2.076 2.076 0 0 0-2.164-2.015h-8.21a2.045 2.045 0 0 0-2.143 2.015v31.674a20.824 20.824 0 0 0-3.861 12.177 21.035 21.035 0 1 0 32.926-17.354zm-8.274-35.3h4.031V164.2a18.906 18.906 0 0 0-4.031-1.1zm-16.548 11.032h4.034v22.594a21.6 21.6 0 0 0-4.031 2.419zm27.389 50.174a16.784 16.784 0 1 1-20.855-24.06 2.015 2.015 0 0 0 .7-.276 16.465 16.465 0 0 1 5.729-1.015c.446 0 .87.021 1.315.064h.021a16.391 16.391 0 0 1 7.213 2.291 16.778 16.778 0 0 1 5.877 22.994z" class="cls-1" data-name="Path 14" transform="translate(-260.962 -126.9)"/>
            </g>
        </g>
        <g id="Group_27" data-name="Group 27" transform="translate(97.14 69.077)">
            <g id="Group_26" data-name="Group 26">
                <path id="Path_15" d="M334.657 338.626a2.684 2.684 0 1 1 2.652-2.694 2.128 2.128 0 0 0 2.122 2.122 2.151 2.151 0 0 0 2.164-2.122 6.929 6.929 0 0 0-4.392-6.449v-1.761a2.122 2.122 0 1 0-4.243 0v1.527a6.92 6.92 0 0 0-4.96 8.422 6.831 6.831 0 0 0 6.64 5.176 2.663 2.663 0 1 1-2.673 2.652 2.128 2.128 0 0 0-2.122-2.122 2.061 2.061 0 0 0-2.079 2.1v.021a6.946 6.946 0 0 0 5.176 6.683v.955a2.122 2.122 0 0 0 4.243 0v-1.166a6.908 6.908 0 0 0-2.525-13.344z" class="cls-1" data-name="Path 15" transform="translate(-327.761 -325.6)"/>
            </g>
        </g>
        <g id="Group_29" data-name="Group 29" transform="translate(53.522 54.926)">
            <g id="Group_28" data-name="Group 28">
                <path id="Path_16" d="M132.558 258.9h-8.274a2.128 2.128 0 0 0-2.122 2.122v33.308a2.128 2.128 0 0 0 2.122 2.122h8.274a2.128 2.128 0 0 0 2.122-2.122v-33.308a2.128 2.128 0 0 0-2.122-2.122zm-2.122 33.52h-4.031v-29.277h4.031z" class="cls-1" data-name="Path 16" transform="translate(-122.163 -258.9)"/>
            </g>
        </g>
        <g id="Group_31" data-name="Group 31" transform="translate(70.282 50.047)">
            <g id="Group_30" data-name="Group 30">
                <path id="Path_17" d="M211.558 235.9h-8.274a2.128 2.128 0 0 0-2.122 2.122v38.4a2.128 2.128 0 0 0 2.122 2.122h8.274a2.128 2.128 0 0 0 2.122-2.122v-38.4a2.128 2.128 0 0 0-2.122-2.122zm-2.122 38.4h-4.031v-34.157h4.031z" class="cls-1" data-name="Path 17" transform="translate(-201.163 -235.9)"/>
            </g>
        </g>
        <g id="Group_33" data-name="Group 33" transform="translate(36.762 73.171)">
            <g id="Group_32" data-name="Group 32">
                <path id="Path_18" d="M53.558 344.9h-8.273a2.128 2.128 0 0 0-2.122 2.122v15.063a2.128 2.128 0 0 0 2.122 2.121h8.274a2.128 2.128 0 0 0 2.122-2.121v-15.064a2.128 2.128 0 0 0-2.123-2.121zm-2.122 15.275h-4.03v-11.032h4.031z" class="cls-1" data-name="Path 18" transform="translate(-43.163 -344.9)"/>
            </g>
        </g>
        <g id="Group_35" data-name="Group 35" transform="translate(35.038)">
            <g id="Group_34" data-name="Group 34">
                <path id="Path_19" d="M115.576 0l-14.511.021a2.122 2.122 0 0 0-.042 4.243h.042l9.4-.021-23.02 22.934L79.4 19.2a2.332 2.332 0 0 0-3.013 0L35.659 59.933a2.115 2.115 0 0 0 3.013 2.97l39.247-39.248 8.041 8.1a2.124 2.124 0 0 0 1.506.679 2.256 2.256 0 0 0 1.506-.679l24.482-24.5-.021 9.441a2.122 2.122 0 1 0 4.243 0l.024-14.553A2.146 2.146 0 0 0 115.576 0z" class="cls-1" data-name="Path 19" transform="translate(-35.038)"/>
            </g>
        </g>
    </g>
</svg>
