<svg xmlns="http://www.w3.org/2000/svg" width="85.093" height="120.046" viewBox="0 0 85.093 120.046">
    <defs>
        <style>
            .cls-1{fill:#3e83c2}
        </style>
    </defs>
    <g id="reading" transform="translate(-72.296)">
        <g id="Group_36" data-name="Group 36" transform="translate(72.296)">
            <path id="Path_20" d="M151.587 79.291v-12.5l-5.274 2.052-.015-.035-.126-.228a13.575 13.575 0 0 0-8.97-6l-12.69-2.309v-1a19.374 19.374 0 0 0 9.3-13.015 7.748 7.748 0 0 0 6.167-7.575v-19.1a12.128 12.128 0 0 0-8.664-11.636l-.967-.967A23.813 23.813 0 0 0 89.7 23.812v14.866a7.748 7.748 0 0 0 6.167 7.575 19.375 19.375 0 0 0 9.3 13.015v1l-12.683 2.31a13.579 13.579 0 0 0-8.966 6l-.116.282-5.3-2.063v12.5a5.809 5.809 0 0 0-5.8 5.8v7.736a5.809 5.809 0 0 0 5.8 5.8v7.125l36.745 14.292 36.745-14.292V98.63a5.809 5.809 0 0 0 5.8-5.8v-7.737a5.809 5.809 0 0 0-5.805-5.802zm-23.451-14.429l8.374 1.522a9.689 9.689 0 0 1 6.105 3.9L123.9 77.558zm-18.936-3.82a19.267 19.267 0 0 0 11.275 0l-5.637 4.228zm2.7 6.858l-3.947 3.945-2.561-7.68 1.232-.222zm11.163-3.955l1.232.222-2.561 7.68-3.948-3.947zm11.12-21.933v-6.66a3.834 3.834 0 0 1 0 6.66zm-38.678 0a3.834 3.834 0 0 1 0-6.66zm0-13v2.209a7.671 7.671 0 0 0-1.934.8v-8.209a19.945 19.945 0 0 1 34.049-14.1l1.706 1.708.52.128a8.265 8.265 0 0 1 6.272 8.032v12.438a7.6 7.6 0 0 0-1.934-.8v-2.209h-6.132a16.821 16.821 0 0 1-13.392-6.693l-1.537-2.054-3.843 3.845a16.639 16.639 0 0 1-11.839 4.9zm3.868 13.537v-9.761a20.47 20.47 0 0 0 12.64-5.947l.752-.752a20.716 20.716 0 0 0 15.286 6.788h2.265v9.67a15.471 15.471 0 1 1-30.943 0zm-6.2 23.838l8.374-1.522 4.231 12.7-18.713-7.284a9.687 9.687 0 0 1 6.11-3.897zM76.164 92.828v-7.735a1.936 1.936 0 0 1 1.936-1.934 5.8 5.8 0 0 1 0 11.6 1.936 1.936 0 0 1-1.936-1.931zm36.745 22.314l-30.943-12.031v-5.3a9.65 9.65 0 0 0 0-17.7v-7.662l30.943 12.033zM107.167 78.1l7.676-7.678 7.676 7.676-7.676 2.986zm40.552 25.009l-30.943 12.031V84.481l30.943-12.033v7.662a9.65 9.65 0 0 0 0 17.7zm5.8-10.281a1.936 1.936 0 0 1-1.934 1.934 5.8 5.8 0 1 1 0-11.6 1.936 1.936 0 0 1 1.934 1.934z" class="cls-1" data-name="Path 20" transform="translate(-72.296)"/>
        </g>
    </g>
</svg>
