<svg xmlns="http://www.w3.org/2000/svg" width="63" height="71.508" viewBox="0 0 63 71.508">
    <defs>
        <style>
            .cls-1{fill:#3e83c2}
        </style>
    </defs>
    <g id="save-money" transform="translate(-.36)">
        <g id="Group_197" data-name="Group 197">
            <path id="Path_193" d="M188.588 155.724a.558.558 0 0 0-.2-.007 1.331 1.331 0 0 1-1.178-1.32.586.586 0 1 0-1.171 0 2.505 2.505 0 0 0 1.842 2.412v.586a.586.586 0 1 0 1.171 0v-.55a2.5 2.5 0 0 0-.512-4.948 1.33 1.33 0 1 1 1.33-1.33.586.586 0 0 0 1.171 0 2.505 2.505 0 0 0-1.989-2.448v-.533a.586.586 0 0 0-1.171 0v.569a2.5 2.5 0 0 0 .659 4.913 1.329 1.329 0 0 1 .049 2.657zm0 0" class="cls-1" data-name="Path 193" transform="translate(-168.947 -121.905)"/>
            <path id="Path_194" d="M104.195 114.984a8.492 8.492 0 1 0 8.492-8.492 8.492 8.492 0 0 0-8.492 8.492zm8.492-7.321a7.321 7.321 0 1 1-7.321 7.321 7.321 7.321 0 0 1 7.321-7.321zm0 0" class="cls-1" data-name="Path 194" transform="translate(-93.095 -84.362)"/>
        </g>
        <g id="Group_198" data-name="Group 198" transform="translate(18 10)">
            <path id="Path_193-2" d="M188.588 155.724a.558.558 0 0 0-.2-.007 1.331 1.331 0 0 1-1.178-1.32.586.586 0 1 0-1.171 0 2.505 2.505 0 0 0 1.842 2.412v.586a.586.586 0 1 0 1.171 0v-.55a2.5 2.5 0 0 0-.512-4.948 1.33 1.33 0 1 1 1.33-1.33.586.586 0 0 0 1.171 0 2.505 2.505 0 0 0-1.989-2.448v-.533a.586.586 0 0 0-1.171 0v.569a2.5 2.5 0 0 0 .659 4.913 1.329 1.329 0 0 1 .049 2.657zm0 0" class="cls-1" data-name="Path 193" transform="translate(-168.947 -121.905)"/>
            <path id="Path_194-2" d="M104.195 114.984a8.492 8.492 0 1 0 8.492-8.492 8.492 8.492 0 0 0-8.492 8.492zm8.492-7.321a7.321 7.321 0 1 1-7.321 7.321 7.321 7.321 0 0 1 7.321-7.321zm0 0" class="cls-1" data-name="Path 194" transform="translate(-93.095 -84.362)"/>
        </g>
        <path id="Path_195" d="M55.383 331.029L46.2 335.37a7.484 7.484 0 0 0-6.38-3.937l-8.482-.233a8.958 8.958 0 0 1-3.855-1l-.863-.447a15.224 15.224 0 0 0-14.1.015l.054-1.955a1.173 1.173 0 0 0-1.14-1.2l-9.3-.256a1.172 1.172 0 0 0-1.2 1.14l-.574 20.41a1.173 1.173 0 0 0 1.14 1.205l9.3.256h.032a1.173 1.173 0 0 0 1.173-1.141l.027-.976 2.416-1.294a4.144 4.144 0 0 1 3.093-.339l14.429 4.05.076.019a15.444 15.444 0 0 0 3.171.327 15.649 15.649 0 0 0 6.538-1.427 1.089 1.089 0 0 0 .145-.08l20.921-13.532a1.174 1.174 0 0 0 .384-1.562 5.925 5.925 0 0 0-7.825-2.384zM2.738 346.8l.5-18.066 6.956.191-.5 18.067zm37.963-.307a13.3 13.3 0 0 1-8.133.908l-14.39-4.039a6.486 6.486 0 0 0-4.835.529l-1.235.662.33-12.012a12.893 12.893 0 0 1 13.1-.7l.863.447a11.328 11.328 0 0 0 4.869 1.258l8.483.233a5.145 5.145 0 0 1 4.889 4.1l-12.635-.349a1.173 1.173 0 0 0-.065 2.345l13.944.384h.033a1.173 1.173 0 0 0 1.172-1.141 7.444 7.444 0 0 0-.113-1.522l9.424-4.453.027-.013a3.584 3.584 0 0 1 4.053.568zm0 0" class="cls-1" data-name="Path 195" transform="translate(0 -278.506)"/>
        <path id="Path_196" d="M214.549 12.316V1.173a1.173 1.173 0 1 0-2.346 0v11.143a1.173 1.173 0 1 0 2.346 0zm0 0" class="cls-1" data-name="Path 196" transform="translate(-180.783)"/>
        <path id="Path_197" d="M274.549 46.451v-5.278a1.173 1.173 0 1 0-2.346 0v5.278a1.173 1.173 0 1 0 2.346 0zm0 0" class="cls-1" data-name="Path 197" transform="translate(-231.986 -34.135)"/>
        <path id="Path_198" d="M154.549 46.451v-5.278a1.173 1.173 0 1 0-2.346 0v5.278a1.173 1.173 0 1 0 2.346 0zm0 0" class="cls-1" data-name="Path 198" transform="translate(-129.58 -34.135)"/>
    </g>
</svg>
